<?xml version="1.0" encoding="utf-8"?>
<!-- Generator: Adobe Illustrator 21.1.0, SVG Export Plug-In . SVG Version: 6.00 Build 0)  -->
<svg version="1.1" id="Layer_1" xmlns="http://www.w3.org/2000/svg" xmlns:xlink="http://www.w3.org/1999/xlink" x="0px" y="0px"
	 width="1280px" height="570px" viewBox="0 0 1280 570" style="enable-background:new 0 0 1280 570;" xml:space="preserve">
<style type="text/css">
	.st0{fill:#F4F4F5;}
	.st1{fill:#ECECED;}
	.st2{fill:#EEEEEF;}
	.st3{fill:#EDEDEE;}
	.st4{fill:#F0F0F1;}
	.st5{fill:#EBECEC;}
	.st6{fill:#EAEBEB;}
	.st7{fill:#EFEFF0;}
	.st8{fill:#F1F1F2;}
	.st9{fill:#F2F2F3;}
	.st10{fill:#E9EAEA;}
	.st11{fill:#EBEBEC;}
	.st12{fill:#E9EAEB;}
	.st13{fill:#EAEAEB;}
</style>
<g>
	<g>
		<path class="st0" d="M987,570c-95.3,0-190.7,0-286,0c-0.7-1.8,0.6-2.9,1.5-3.9c3.2-3.3,3.4-7,2.3-11.1c-1.1-4.2-2.3-8.3-3.4-12.5
			c-1.2-4.5-2.9-8.4-8.1-9.7c-2.7-0.7-2.9-2.5-1.5-5c4-6.7,2.7-11.1-4.6-14c-12.7-5.2-23.9-1-35.5,5.9c2.7,2.1,5.9,1.7,7.6,3.7
			c2.6,3-1.2,4.6-1.9,6.8c0.5,1.4,1.9,1.4,2.8,2c2.4,1.5,2.2,3.1,0.2,4.8c-2.4,2-4.6,4.3-6.7,6.7c-3.2,3.7-3.8,3.5-6.2-0.9
			c-0.2-0.4-0.4-0.9-0.9-1.1c-6.3,3.9-6.3,3.9-10.2-5.2c-3.1,2.6-4.9,5.8-6,9.4c-2.1,6.5-3.9,13.1-2.1,20c0.4,1.4,0.8,2.9-0.4,4.3
			c-12.7,0-25.3,0-38,0c-3.7-1.4-5.7-3.9-6.3-8c-0.8-5.9-4.7-9.2-10.5-10.3c-1.5-0.3-3-0.3-4.4-0.9c-0.3-0.1-0.6-0.3-0.8-0.5
			c-7.1-8.2-11.4-8.8-20.8-3.4c-3.2,1.8-5.8,6.7-10.6,2.3c-0.9-0.8-2.1,1.2-2.8,2.2c-3.5,5-7.4,9.9-7.6,16.4c0,0.9-0.5,1.5-1.1,2.2
			c-69.7,0-139.3,0-209,0c0.5-2.9,2.9-2.2,4.6-2.4c5.9-0.8,8.7-3.4,8.8-9.4c0.1-10.5,0.7-20.9-0.9-31.4
			c-1.8-11.3-8.2-15.4-19.1-11.9c-5.8,1.9-7.8,1.1-10.4-4.9c-1.3-2.9-2.9-3.8-5.8-2.9c-3,0.9-3,2.9-2.6,5.5c0.9,5-0.8,7.4-5.8,8.7
			c-1.3,0.3-2.6,0.5-3.9,0.9c-6.6,2.1-10.2,7.8-9,14.7c1,5.7,3.9,10.6,6.6,15.5c2.3,4.2,5,8.3,7.2,12.5c0.8,1.6,2.2,3.1,1.3,5.1
			c-19.7,0-39.3,0-59,0c-1.6-1.6-1.4-3.7-1.4-5.6c-0.1-4.9-0.8-9.6-2.1-14.3c-2.2-7.6-9-10.9-16.5-8.3c-7.3,2.5-8.9,1.9-12.1-4.9
			c-1-2.1-2.1-3.3-4.6-2.6s-3.9,1.9-3.7,4.9c0.6,7.5-0.7,8.9-8,10.3c-8.3,1.6-11.9,6.7-10.5,15.1c0.3,1.8,1,3.6,0.1,5.4
			c-18,0-36,0-54,0c-2.5-1.4-5.1-2.4-7.6-3.7c-4.4-2.3-8.8-1.9-12.7,0.9c-2.6,1.8-5.1,2.6-8.4,2c-3.1-0.6-6.3-0.3-9.3,0.8
			c-24.3,0-48.7-0.1-73,0.1c-3.4,0-4.1-0.7-4.1-4.1c0.1-81.3,0.1-162.7,0.1-244c2-0.9,3.6,0.3,5.2,1c17.7,7.2,36.9-3.5,40-23.1
			c0.4-2.5,0.4-5-0.2-7.4c-2.6-11.5-5.5-23-9.1-34.2c-4.7-14.7-17.6-19.4-31-11.8c-1.5,0.9-2.9,2.3-5,1.6c0-11.3,0-22.7,0-34
			c0.6-0.8,1.1-1.7,2.1-2.1c7.9-3.1,11-9.7,12.8-17.3c1.6-6.8,0.8-13.7-1.2-20.2c-2.1-6.6-7.9-9.6-13.6-12.4
			c0-52.8,0-105.5-0.1-158.3c0-3.1,0.7-3.8,3.8-3.8c51.4,0.1,102.8,0.1,154.3,0.1c0.6,0.6,1.2,1.2,1.4,2c0.8,2.6,2,2.6,3.6,0.7
			c1.1-1.3,2.7-1.7,4-2.7c23.3,0,46.7,0,70,0c2.2,2.6,2.3,6.1,3.7,9.1c2,4.4,4,8.7,7.3,12.3c2.3,2.6,5,4.9,8,6.7
			c5.1,3.1,10.3,3.6,15.4-0.2c1.8-1.3,3.7-2.1,6-1.9c7.9,0.5,13.3-3,16.5-10.2c1.5-3.4,2.4-6.9,2.6-10.6c0.1-1.8,0-3.7,1.4-5.2
			c104.3,0,208.7,0,313,0c1.4,0.7,2.2,1.9,2.6,3.4c1.8,7.7,4.5,15.1,5.8,23c-0.2,6.7-1.8,12.8-6.7,17.7c-1.4,1.4-2.1,3-1.4,5
			c0.7,1.8,2.2,2.3,4,2.3c1.7,0,3.3,0.5,4.7,1.3c1.8,1,3.6,2,5.6,0.4c2.1-1.7,2.5-4.2,1.7-6.4c-2-5.6-0.7-10.8,1.4-16
			c3.7-5.4,8.8-9.5,13.3-14.1c4.2-4.3,8.6-8.3,11.2-13.9c0.6-1.3,1.7-2.1,2.8-2.8c21.7,0,43.3,0,65,0c1.9,1.4,3.3,3.3,4.6,5.2
			c3.6,5.1,9.2,6.2,14.5,6c3.9-0.1,6.5-4.2,9.1-7.1c1.1-1.2,1.5-3,2.8-4.1c73,0,146,0,219,0c10.1,5.6,13.1,15.3,14.3,25.7
			c0.7,5.8,0.4,11.7,0.1,17.5c-0.3,6.3,1.4,12.2,3,18.2c0.8,2.9,2.3,3.6,5.2,2.9c6.8-1.8,13.5-3.8,20.2-5.5c2.8-0.7,3.3-2.3,2.7-4.8
			c-2-8-4.8-15.5-9.6-22.4c-5.5-7.8-10-16.2-9.3-26.3c0.1-1.8,0-3.7,1.5-5.1c27,0,54,0,81,0c1.7,1.8,1.5,4,1.5,6.1
			c0,5.2,0,10.3,0,15.5c0.1,10.5,5.9,14.8,15.7,11.7c1.1-0.3,2.2-0.8,3.3-1.1c5.2-0.9,10.3-2.6,15.5-3.8c7.1-1.6,10.3-8.7,7-15.4
			c-1.2-2.4-2.8-4.5-3.9-6.9c-0.9-1.9-2.1-3.8-1.1-6.1c21,0,42,0,63,0c0.8,0.8,1.5,1.8,2.1,2.8c3.7,5.4,5.4,6,11.6,4.4
			c10.1-2.5,20-5.6,30.3-7.2c17.2,0,34.3,0.1,51.5-0.1c3,0,3.6,0.6,3.6,3.6C1280,54,1280,104.5,1280,155c-4.4-1.2-5.2-2.5-3.8-6.4
			c1.7-4.8,1.3-5.5-3.7-7c-4.6-1.4-9.3-2.7-14-3.6c-9-1.8-17.2,0.2-24.4,5.9c-4.6,3.6-8.5,8-12.5,12.2c-2.3,2.5-2.7,5,0.6,7
			c2.6,1.5,2.8,3.8,2.5,6.5c-0.4,3.1-1.5,6.1-2,9.3c-0.5,3.1,0.4,5.5,4.2,4.9c3.8-0.6,5,1.4,5.7,4.5c0.9,3.7,1.6,7.5,2.9,11.1
			c1.4,4.2,3,5.1,6.6,2.8c3.3-2.1,5.5-1.2,7.8,1.3c1.3,1.3,2.6,2.6,3.9,3.9c2.5,2.7,5.1,2.3,8.7,2c7.8-0.6,8.7-5.6,9.9-11.2
			c0.2-1.1,0.7-2.2,1.2-3.3c1.7-3.3,3.2-3.5,6.4-0.9c0,17,0,34,0,51c-0.9,2.5-0.7,5.2-1.4,7.7c-0.4,1.4-0.1,2.6,1.4,3.3c0,2,0,4,0,6
			c-1.2,2.3-3.2,1.9-5.2,1.7c-16.8-1.4-25.2,9.7-19.4,25.6c3.6,10,10,17.1,20.7,19.5c1.5,0.3,2.8,1,3.9,2.1c0,25,0,50,0,75
			c-7.1,4.8-7.5,6.7-2.7,14.4c0.9,1.5,1.7,3.1,2.7,4.6c0,53.7,0,107.3,0.1,161c0,3.4-0.7,4.1-4.1,4.1c-78.3-0.1-156.7-0.1-235-0.1
			c-0.6-3.4,1.6-4.1,4.1-4.1c6.9,0,12.9-2.3,18.7-5.9c3.4-2.1,3.7-4.4,2.2-7.5c-2-4-5.4-6.2-9.6-7.4c-9-2.5-18.1-2.4-27.2-0.6
			c-13.5,2.7-26.3,7.1-36.1,17.7C990.9,564.7,990,568.2,987,570z"/>
		<path class="st1" d="M628,570c-3.8-12.7-0.9-24.2,6.8-34.7c0.6-0.8,0.9-2,2.1-1.8c1.3,0.2,1,1.5,1.3,2.4c2.6,8,2.6,8,9.2,2.8
			c1.7,1.8,1.2,4.7,3.2,6.6c3.4-3.8,6.4-8,11.1-10.7c-1.9-2.4-4.7-1.9-6.8-3.1c0.2-3.2,5.3-4,4.2-6.8c-1-2.6-5-1.8-7.6-2.9
			c-2-0.9-2.2-1.8-0.5-3.1c8.9-6.6,26.2-12.1,38-5.7c7.9,4.3,9.1,9.4,3.3,16.3c-0.3,0.4-0.4,0.9-0.9,1.9c9.1,0.4,10.6,7.2,12.2,14
			c0.4,1.8,0.8,3.6,1.5,5.3c3.1,7.5,2.6,14.2-4.1,19.7C676.7,570,652.3,570,628,570z"/>
		<path class="st2" d="M0,248c12.3-8.4,20.4-9,30.1-1.9c5.3,3.9,7,10,8.7,15.9c2.7,9.7,5.1,19.6,7.5,29.4c3.3,13.4-6.8,29.9-20,33.7
			c-9.3,2.7-18,1.8-26.3-3.1C0,297.3,0,272.7,0,248z"/>
		<path class="st3" d="M287,570c-4.7-8.8-10.4-17-14.5-26.1c-2.1-4.6-3.6-9.4-1.7-14.4c2.3-5.8,6.8-8.8,12.9-9.5
			c5.4-0.6,7.1-2.9,5.1-7.9c-1.7-4.5,0.5-5.6,4-6.5c3.3-0.9,6.1-1.3,7.2,3.2c1.4,5.9,3.2,6.7,8.6,4.5c10.3-4,18.8,0.3,21,11.2
			c2.4,11.8,1.5,23.8,1.2,35.8c-0.2,5.7-4.2,8.6-10.1,8.8c-1.6,0-3.4-0.5-4.7,1C306.3,570,296.7,570,287,570z"/>
		<path class="st4" d="M987,570c2.9-9.1,10-14.5,17.8-18.6c13.1-6.9,27.2-10.4,42.2-9.3c6.5,0.5,13.3,1.1,18.2,6.5
			c5.1,5.7,4.3,8.8-1.8,13c-5.9,4-11.9,5.9-18.9,5.4c-2.2-0.2-2.7,1.5-3.5,3C1023,570,1005,570,987,570z"/>
		<path class="st5" d="M169,570c-0.6-2.1-1.4-4.1-1.8-6.2c-1.5-8,4.2-15,12.6-15.8c6-0.6,7.9-2.7,6.3-8.2c-1.8-6,2.6-6,6-7.2
			c4.3-1.6,4.4,1.6,5.2,4.4c1.3,4.8,4.3,6.5,8.6,4c8.4-4.9,19.4,1.3,20.7,10.8c0.8,6.1,1.7,12.1,1.5,18.3
			C208.3,570,188.7,570,169,570z"/>
		<path class="st5" d="M999,0c-1.4,12.1,2.8,22.5,9.9,31.9c5.3,7.1,7.3,15.5,9.6,23.9c0.8,2.9-0.8,3.5-2.9,4.1
			c-7.7,2-15.5,3.8-23,6.2c-3.6,1.2-4.5-0.1-5.5-3.1c-3.1-9.5-3.9-19.2-3-29c1-10.8-2.5-20.2-8-29.2c-1.3-2.2-5.6-0.9-5.1-4.8
			C980.3,0,989.7,0,999,0z"/>
		<path class="st3" d="M1280,194c-3.1-1.8-4.9-1-5.7,2.5c-0.7,3.1-1.7,6.1-2.2,9.2c-0.3,1.6-1,3.7-2.1,3.6c-4.4-0.6-7.7,3-11.9,2.7
			c-3.2-0.2-4.4-3.2-6.6-5c-1.3-1.1-2.5-2.2-3.5-3.5c-1.6-1.9-2.7-2-4.8-0.2c-4,3.5-7.2,2.5-8.8-2.6c-1.3-4.3-2.5-8.6-3.3-13
			c-0.5-2.7-1.3-3.2-3.9-2.6c-4.9,1.1-6.7-0.7-6.2-5.7c0.4-3.4,1.7-6.7,2.3-10.1c0.5-2.9,0-4.2-2.6-5.3c-3.8-1.6-3.9-4.8-1.6-7.3
			c5-5.3,9.7-11,15.8-15.1c8.2-5.4,17-7,26.6-4.2c4.6,1.4,9.3,2.5,13.9,3.7c4.1,1,4.9,4.2,2.8,6.8c-3.1,3.8-1.2,5.4,1.7,7.3
			C1280,168,1280,181,1280,194z"/>
		<path class="st6" d="M298,0c0.2,8.8-1,17.2-8,23.6c-3.6,3.3-7.5,5.4-12.6,3.7c-1.3-0.4-2.5-0.1-3.8,0.6c-9.6,6-15.1,5.4-23.7-2.5
			c-1.1-1-1.9-2.2-2.9-3.4c-0.6-1.3,0.1-2.3,0.9-3.1C254.5,12.5,260.3,5.2,268,0C278,0,288,0,298,0z"/>
		<path class="st1" d="M1280,311c-16.3-1.4-24.8-13.1-27.8-27.4c-2.7-12.9,9-23.8,22.6-21.4c1.8,0.3,3.5,1,5.2-0.2
			C1280,278.3,1280,294.7,1280,311z"/>
		<path class="st7" d="M525,570c-1.1-9.3,5-15.4,9.7-22.2c0.8-1.1,2.5-2.7,3.4-0.3c1.5,4.4,3.6,1.8,5.2,0.5c4-3.1,8.4-5.4,13.5-6
			c6.3-0.8,9.8,2.7,12.3,8c3.5,5.3,1.8,13.8-4,20C551.7,570,538.3,570,525,570z"/>
		<path class="st3" d="M656,0c-3.7,9.9-11.9,16.1-18.9,23.4c-2.4,2.5-4.7,5.1-7.1,7.6c-4.6,0.5-8.9,0.1-12-4c-1.7-9.2-4.5-18-7-27
			C626,0,641,0,656,0z"/>
		<path class="st1" d="M1118,0c1.4,4.7,4.1,8.7,6.5,12.8c3.4,6,0.1,15.2-6.6,16.6c-5.7,1.2-11,3.9-16.9,3.6c-4.5-2.7-7.5-6.6-7.9-12
			c-0.5-7-2.2-14.1,0.9-21C1102,0,1110,0,1118,0z"/>
		<path class="st1" d="M0,162c7.9,0.3,12.8,5.2,14.9,11.9c3.6,11.2,3.4,22.4-3.6,32.8c-2.8,4.2-6.9,5.9-11.3,7.3
			C0,196.7,0,179.3,0,162z"/>
		<path class="st2" d="M1094,0c0.4,7.4-0.6,14.8,0.8,22.3c0.5,2.7,1.4,4.6,3.2,6.4c1.3,1.2,2.9,2.3,2.9,4.4
			c-8.3,5.4-14.4,4.3-20-3.5c-1.1-1.5-1-3.1-1-4.7c0-8.3,0-16.5,0-24.8C1084.7,0,1089.3,0,1094,0z"/>
		<path class="st3" d="M268,0c-3.9,5.1-8.9,9.1-13.3,13.8c-2.6,2.8-5.2,5.5-7.7,8.2c-5.7-6.3-9-13.6-10-22C247.3,0,257.7,0,268,0z"
			/>
		<path class="st8" d="M565,570c0.3-3.1,2.2-5.8,3.3-8.6c1.5-3.9,1.6-7.5,0.7-11.4c10.5,0.2,15.3,3.9,16.5,14.1
			c0.4,3.4,4,3.2,4.5,5.9C581.7,570,573.3,570,565,570z"/>
		<path class="st4" d="M752,0c-0.3,7.1-7.2,9-10.6,13.6c-3.9-2.3-9-0.6-12.6-3.5c-3.3-2.7-6.6-5.6-7.8-10.1C731.3,0,741.7,0,752,0z"
			/>
		<path class="st8" d="M1225,0c-7.5,3.4-15.8,4.4-23.6,7c-2.2,0.7-4.5,1-6.7,1.7c-7.6,2.3-12.3-0.7-13.7-8.6
			C1195.7,0,1210.3,0,1225,0z"/>
		<path class="st1" d="M77,570c0.9-1.2,2.5-1.7,3.5-1.6c6.4,0.8,11.7-1.5,17.4-4.2c6.6-3.1,12.3,0.9,17.1,5.7
			C102.3,570,89.7,570,77,570z"/>
		<path class="st4" d="M1280,405c-3.3-1.7-4.6-5-6-8.1c-3.2-7.2-1.9-9.6,6-10.9C1280,392.3,1280,398.7,1280,405z"/>
		<path class="st1" d="M167,0c-0.6,0.8-1.1,1.7-1.9,2.3c-1.8,1.4-3,4.7-5.2,3.9c-1.8-0.7-1.8-3.9-2-6.2C161,0,164,0,167,0z"/>
		<path class="st3" d="M1280,256c-1.9,0.9-4.1,2.1-3-1.8c0.9-3.1,2-6.1,3-9.2C1280,248.7,1280,252.3,1280,256z"/>
		<path class="st7" d="M606.1,467c1.3-2.1-0.2-2.8-1.6-3.9c-3.2-2.4-4.8-5.6-2.5-9.5c0.9-1.4,0.7-2.4-0.3-3.6
			c-0.4-0.5-0.7-1.1-1-1.7c-0.8-1.6-1.4-4-0.3-4.7c6.2-3.9,0.2-14,8.5-16.4c2.7-0.8,3.2-2.7,3.7-4.7c0.9-3.3,2.8-4.9,6.1-4.5
			c2.4,0.3,4.1-0.6,5.4-2.6c1.2-1.8,3.4-3.3,5-2.8c4.5,1.7,8.6,0.4,12.9-0.6c1.1-0.3,2.5-0.1,3.2,0.9c2.2,2.8,5.1,3.4,8.5,3.1
			c0.9-0.1,2.6,0.3,2.7,0.8c2.4,6.7,13.4,6.6,12.7,15.8c-0.1,0.9,1,2.1,1.9,2.8c3.3,2.8,3.9,6.1,2,9.8c-0.6,1.2-0.9,2,0.2,3
			c0.5,0.4,0.8,1.1,1.1,1.7c0.8,1.7,1.3,4.6,0.2,5.2c-6.4,3.6-0.4,13.4-8.4,15.9c-1.9,0.6-3.4,1.5-3.2,3.8c0,0.3,0,0.7-0.1,1
			c-0.6,2.2-2.7,3.9-4.3,3.7c-6.5-0.9-9,9-16.1,5.6c-1.6-0.8-2.9-1-4.6,0.1c-3.3,2.2-6.6,1.9-9.3-1.2c-1.4-1.6-3-2.6-5.2-1.4
			c-0.1,0.1-0.3,0.1-0.5,0.1c-2.2,0.4-4.9-0.5-5.3-2C616.2,474.1,605.5,475.2,606.1,467z"/>
		<path class="st7" d="M1012.7,162c-3.2,0.1-4.9-2.2-6.2-4.4c-1.7-2.8-3.8-3.7-7-3.7c-5.4,0-7.5-2.1-7.5-7.6c0-3.2-1.2-5.3-3.7-7.1
			c-5.4-3.9-5.7-5-2.5-10.6c1.5-2.6,1-4.5-0.4-6.9c-2.8-4.5-1.9-7.8,2.7-10.3c2.9-1.6,3.8-3.6,3.9-6.8c0-5.5,2.1-7.6,7.5-7.6
			c3.2,0,5.3-0.9,6.8-3.8c2.6-4.9,5.5-5.8,10.1-2.8c2.7,1.8,4.8,1.4,7.3,0.2c5.6-2.8,7.8-2.1,11,3.2c1.3,2.3,3,3.2,5.6,3.3
			c6.9,0.2,8.2,1.5,8.5,8.7c0.1,2.9,1.4,5,3.8,5.9c5,1.9,5.1,5.6,3,9.2c-2,3.5-2,6.4,0,9.7c2.4,3.9,1.1,7.1-2.9,8.9
			c-3,1.4-3.9,3.6-3.9,6.8c0,5.2-2.4,7.7-7.6,7.6c-3.2,0-5.3,1.2-7.1,3.6c-3.9,5.5-4.7,5.6-10.4,2.3c-2.3-1.3-4.4-1.1-6.5,0.3
			C1015.9,161.1,1014.5,161.9,1012.7,162z"/>
		<path class="st5" d="M298.2,56c10.1,0,17.1,4.8,20.1,14.6c3.5,11.4,6.8,22.9,9.5,34.5c3.3,14.6-8.3,31.4-23,34.8
			c-19,4.4-36.5-9.4-37.7-28.8c-0.4-7.2,2.8-13.9,4.4-20.8c1.3-5.8,3.2-11.5,4.7-17.3C278.6,63.4,287.2,54.9,298.2,56z"/>
		<path class="st3" d="M811,535.7c0,1.6-0.1,2.7-1,3.6c-9.3,9-18.6,18-27.8,27c-3.2,3.2-5.5,0.7-7.6-1.4
			c-7.5-7.3-14.9-14.8-22.3-22.2c-8.1-8.1-16.3-16.2-24.4-24.4c-4-4.1-4.1-5.7-0.2-9.5c8.1-8.2,16.2-16.3,24.4-24.4
			c3.6-3.5,6.3-3.6,9.8-0.1c15.6,15.5,31.1,31.1,46.6,46.6C809.9,532.4,811.5,533.8,811,535.7z"/>
		<path class="st5" d="M565.4,183c-1.7,0.1-2.8-0.9-3.9-2c-11.5-12-23.8-23.2-35-35.6c-3.4-3.7-7.5-7-11.1-10.7
			c-4.9-5-4.9-6.6,0-11.5c7.9-7.9,15.9-15.7,23.6-23.7c3.3-3.4,6-3.3,9.3,0c15.7,15.9,31.5,31.7,47.4,47.3c3.1,3.1,2.9,5.3-0.1,8.3
			c-8.6,8.3-16.9,16.9-25.4,25.3C568.7,181.8,567.4,183.3,565.4,183z"/>
		<path class="st8" d="M216.3,300.3c5.8,0.1,10.4,3,16,3.3c-0.7-2.4-3.8-3.4-3.5-6.5c5.6,1.8,11.7,1.1,16.5,4.6
			c8,5.7,15.8,2,23.7-0.1c2.2-0.6,4.5-1.1,6.7-1.9c4-1.4,5.6-0.3,5.3,4c-0.1,2.3-0.6,4.3-2.2,5.9c-3,3-0.8,4.2,1.8,4.3
			c4,0.1,5.7,2.3,6.3,5.7c1.4,8.3,5.5,16.4,1.1,25c-1.8,3.5-4.1,6.7-6.8,9.1c-3.9,3.4-7.2,7.3-11.1,10.7c-1.8,1.6-3,1.5-4.6-0.1
			c-4.2-4.3-8.5-8.4-12.6-12.7c-1.8-1.8-3.3-2.9-6-1.7c-4.4,1.8-9.1,1.8-13.7,0.4c-5.6-1.7-10.6,1.7-16,2c-2.2,0.1-3.7,0.1-5.2-1.6
			c-1.8-2-3.8-3.7-5.6-5.7c-3.4-3.8-3.4-7.4,0.1-11.1c2.3-2.4,4.7-4.7,7.5-6.5c5-3.2,7.5-8.8,12.5-12c2.5-1.6,1-3.6-0.7-4.9
			C222.4,307.7,219.2,304.5,216.3,300.3z"/>
		<path class="st3" d="M1151.5,163.9c6.7-0.8,13.8,3,21.4,4.7c3.4,0.8,4.6,4.8,2.1,7.6s-1.3,4.2,0.7,6.1c2.5,2.4,5.1,4.8,7.4,7.5
			c2.9,3.4,2.4,5.6-1.7,7.2c-3.3,1.2-3.9,3.1-2.9,6.1c1.2,3.8,2.3,7.6,3.2,11.5c1.2,4.9,0,6.5-5.1,6.3c-3.3-0.1-4.9,1.2-5.5,4.2
			c-0.5,2.3-1.4,4.4-1.8,6.7c-0.9,4.1-2.6,6.9-7.5,5.1c-1.3-0.5-1.8,0.3-2.4,1.1c-2.4,3.1-4.9,2.1-7.2,0c-1.5-1.3-2.6-3-4.1-4.3
			c-3-2.6-5.5-6.9-10.3-1.8c-2.3,2.4-5,0.2-5.8-2.9c-1.2-4.3-2.3-8.7-3.4-13c-0.6-2.4-1.2-4.1-4.7-3.3c-4.8,1.1-5.8-0.3-5.8-5.2
			c0-3.6,1.7-6.8,2.5-10.1c0.7-3,0.7-5-2.7-6.1c-3.3-1.1-3.8-4.1-1.9-6.4C1124.8,174,1134.1,163.4,1151.5,163.9z"/>
		<path class="st7" d="M779,414c-0.4,2.2-0.9,4.7-2.5,6.7c-2.5,3.2-2.8,6.4-1.7,10.3c2.5,9-0.9,14.2-10.4,15.9
			c-3.1,0.6-4.5,2.6-5.8,4.9c-5.2,9.1-9.6,10.2-18.6,4.8c-3.3-2-6.5-2-10-0.6c-6.4,2.6-12.6-0.6-14-7.4c-1-4.5-3-7.6-7.3-9.9
			c-6.7-3.5-8.2-9.8-4.2-16.4c2.4-4,3.2-7.7,1.2-12.2c-2.2-5,0.7-10.7,5.9-12.3c5.1-1.6,9.4-3.4,12.4-8.8c3.6-6.5,9.9-7.3,16.2-3.1
			c3.7,2.5,7.2,2.6,11.3,1c5.7-2.4,12.4,1.1,13.2,7.3c0.7,5.3,3.5,8.4,7.8,10.7C776.2,406.7,778.4,409.7,779,414z"/>
		<path class="st8" d="M398,497.3c-0.5-2.4-0.8-4.9-1.6-7.3c-0.8-2.6,0.8-3.3,2.6-3.8c2.3-0.6,2.7,0.8,3,2.8
			c0.3,2.1,1.4,4.1,1.8,6.2c0.3,1.7,0.4,3.1,2.7,2.2c2-0.8,5.3,0.4,5.5-3.3c0.1-2.4-0.8-4.6-1.5-6.8c-0.7-2-1.1-4.1,1.5-5
			c2.5-0.8,3.7,0.7,4.2,3c0,0.2,0.1,0.3,0.2,0.5c2.7,8.3,2.7,8.3,11.2,6.2c2.7-0.7,5.2-2.1,8.2-1.9c4.9,0.2,8.3,3.2,6.8,7.6
			c-1.4,4.3,0.2,7.7,1,11.5c0.6,3.1,1.4,6.2,2.5,9.1c0.9,2.3,0,7.4,5.5,4.5c0.7-0.4,2.1,0.5,2.1,1.6c0.1,1.9-0.7,3.8-2.6,4.4
			c-6,1.9-12,3.6-18.1,5.3c-12.5,3.3-25,6.5-37.5,9.8c-7,1.8-14.1,3.6-21.1,5.6c-2.7,0.8-4-0.8-4.8-2.4c-1.2-2.4,1.6-1.8,2.6-2.6
			c1-0.8,2.4-1,1.9-2.9c-1.8-6.5-3.5-13.1-5.2-19.6c-0.3-1.3-1.4-1.8-2.1-2.6c-4.7-5.6-3.3-10.2,3.8-12.1c3.5-1,7-2.1,10.5-2.9
			c3.3-0.7,3.9-2.5,2.8-5.4c-0.6-1.7-1.1-3.5-1.6-5.2c-0.4-1.5-0.7-3,1.5-3.5c1.8-0.4,3.7-1,4.4,1.6c0.6,2.4,1.4,4.8,1.7,7.2
			c0.3,2.8,1.9,2.8,3.8,2.2C395.7,500.4,398.9,501.2,398,497.3z"/>
		<path class="st7" d="M1107,357c-13.1,17.8-39.7,19.7-56.7,6c-22.9-18.3-18.2-54.6,6.8-67.1c16.2-8.1,31.3-6.1,45,5
			c8.6,7,13.6,16.6,13.9,28.1c-0.7,0.6-1.6,0.8-2.3,0.2c-4.6-4-10.5-6.4-12.8-12.8c-1.7-4.6-5.4-7.5-9.9-9.4
			c-2.5-1.1-4.4-0.6-5.1,2.1c-1.9,8.3-5.5,15.9-8.9,23.6c-1.2,2.6-1.4,5.5-0.7,8.3c0.5,1.8,0.2,3.6-0.5,5.4c-1.4,3.9-3,7.8-1.4,12.1
			c0.4,1-0.5,1.9-1,2.4c6.5,1.8,12.3-0.4,17.7-4S1101.8,353.4,1107,357z"/>
		<path class="st4" d="M561,37c8.4,3.3,8.2,3.4,4.6,11.8c-4.1,9.5-10.5,17.2-19.3,21.9c-7.6,4-15.8,7.1-25.5,3.8
			c-7.2-2.5-13.1-5.7-18.1-11.2c-3.1-3.4-4.9-7.3-5.8-11.8c-0.6-2.8-0.9-5.8-5.1-5.9c-2.5-0.1-3.7-2.1-3.9-4.9
			c-0.2-4.4,0.8-8.6,2.1-12.7c-1-2.5-0.5-5.2-1.4-7.7c-0.7-1.7,0.2-3.3,1.4-4.5c4.7-4.8,9.8-8.4,17.1-6.8c4.8,2.4,6.6,7.8,11,10.7
			c2.5,1.7,4.6,4,6.2,6.9c1.5,2.7,4.5,0.9,6.8,1.4C541.4,29.8,551.6,32.1,561,37z"/>
		<path class="st1" d="M1191.7,370.9c6.6-0.9,12,1.6,16.4,5.9c10,9.7,19.8,19.7,29.7,29.6c3.2,3.2,2.9,6.3-0.2,9.5
			c-2.4,2.5-6.8,4.6-6.7,7.6c0.1,3.2,4.6,5.3,7,8c1.2,1.4,2.7,2.5,3.8,3.9c1.8,2.4,2.1,5-0.3,7.1c-2.3,2.1-4.4,1.3-6.4-0.9
			c-2.9-3.2-6.2-6-9.1-9.3c-2-2.2-3.3-1.9-5.1,0.1c-2.1,2.4-4.4,4.6-6.7,6.7c-2.7,2.4-5.4,2.1-7.8-0.7c-7.7-9.1-17-16.6-25.3-25.1
			c-2.6-2.7-5.1-5.7-7.2-8.8C1163.8,390,1175.8,370.6,1191.7,370.9z"/>
		<path class="st3" d="M406,414.8c0,5,0.1,10,0,15c-0.2,6.1-5.8,10.6-11.7,8.8c-5.9-1.9-10.3-1.6-15.1,3.4
			c-5.9,6.2-12.4,4.9-16.9-2.4c-5-8.2-9.8-16.6-14.1-25.2c-3-6.1-5.3-12.6-0.4-19.2c3.1-4.3,7.6-5.2,12.1-5.9
			c4.3-0.8,5.6-2.5,4.3-6.8c-1.6-5.3,2-8.8,7.7-8.3c2.7,0.3,2.9,2.4,3.6,4.2c2.1,5.6,3.3,6.2,8.6,4.3c12.1-4.3,21.2,2.7,21.8,16.8
			C406.2,404.4,406,409.6,406,414.8z"/>
		<path class="st5" d="M699,184c7.7,2.4,11.3,9,14.7,15.3c6.5,11.7,8.4,24,1.8,36.4c-4.5,8.3-11,14.9-20.4,17.1
			c-14.8,3.4-34.1-4.5-39.9-21.9c-3.9-11.7-4.9-23.6,1.8-34.9c2.1-0.4,2.9,1.4,4,2.5c6.4,6.7,14.5,7.7,22.6,5.1
			c7.7-2.4,12.8-8.1,14.1-16.5C697.8,186,698,184.8,699,184z"/>
		<path class="st6" d="M626,122c0.7-1.7,1.3-3.3,2-5c3.1-1,6.3-0.4,9.4-0.4c6.9,0.1,13-2.3,19.1-5.1c1.3-0.6,3.3-1.3,2.4-3.1
			c-1.1-2.1-3.2-1.5-4.7-0.2c-4.3,3.6-9.6,4.6-14.9,4.9c-1.9,0.1-5.1,0.8-4.3-3.2c5.9-4.7,7.4-7,9.4-14.6
			c3.5-13.6,14.5-20.7,30-19.3c10,0.9,20.6,12.5,21.6,23.8c0.7,7.8-2.6,13.6-9.8,17.2c-1.5,0.7-3,1.4-4.5,2c-6.5,2.5-6.5,2.5-5,9.3
			c1.3,6.3-1.4,13.1-6.9,16.3c-9.6,5.5-20,8.3-31,7.3c-7.4-0.6-9.9-7.1-12.6-12.8c-1.5-3.1-1.6-6.7-1.1-10.1
			c2.3-1.2,4.6,0.3,6.8,0.2c11.4-0.5,22.3-3.1,32.5-8.5c2-1.1,5.8-2.5,4.4-4.9c-1.6-2.7-3.9,0.8-5.7,1.8c-9.7,5.3-20,8.1-31,7.7
			C629.5,125.3,626.9,125.1,626,122z"/>
		<path class="st3" d="M1232,541c-21.2,0.9-37.1-13.8-38.6-34.2c-1.2-15.2,9.1-23.5,24.7-21.4c6.6,0.9,10.9,1.1,16.7-4
			c13.2-11.8,28.8-7.3,34.5,9.6c6.9,20.7-4.6,42.1-25.7,48c-1.9,0.5-3.7,1.5-5.6,1.8C1235.7,541.2,1233.5,541,1232,541z"/>
		<path class="st5" d="M148,503.2c3.8-7.7,0.9-13.5-3.6-20c-10.1-14.5-5-30.2,11-36.3c3.3-1.3,6.7-1.5,10.2-1.1
			c7.1,0.8,7.3,0.8,9.1-6.3c1.4-5.6,2.9-11.2,4.2-16.9c0.5-2.1,0.8-3.7,3.4-2.6c2.1,0.8,4.7,0.9,3.9,4.5c-0.4,1.5-1.5,3-0.8,4.8
			c0.2,0,0.4,0.1,0.5,0c2.4-1.1,3.7-5.2,6.1-4.6c3.9,1,7.4,3.6,10.5,6.4c2.4,2.1,2.7,3.6,0.2,6c-4.9,4.5-9.4,9.5-14.2,14
			c-2.3,2.2-2.2,3.5-0.1,6c12.5,16,6.1,34.6-11,39.4c-4.3,1.2-8.8,1.2-12.8,0.4c-5.9-1.3-10,0.5-13.5,4.8
			C150.3,502.3,149.7,503.2,148,503.2z"/>
		<path class="st5" d="M610.1,379c-8.9,0.5-15-4.8-19.4-12c-7.1-11.6-10-24.3-6.6-37.7c3.9-15.3,26.6-22,38.3-11.2
			c13.5,12.5,17,28.3,12.6,45.8C632.8,372.9,622.2,379,610.1,379z"/>
		<path class="st1" d="M173.9,87c11-1.2,16.7,4.4,18.3,13.9c0.6,3.5,2.4,6.4,5,9c11.4,11.2,22.7,22.6,34,33.9c5,5,4.9,8.3-1,12.4
			c-2.9,2-4.8,4.2-6.5,7.2c-2.8,5.1-7.5,5.4-11.6,1.4c-11-10.9-22-21.8-32.8-32.9c-3.7-3.9-7.8-6.3-13-7.5
			c-7.8-1.8-11.1-6.1-11.3-14c0-2,0.1-4,0-6c-0.4-4.6,0.3-8.1,6.2-7.2c1.5,0.2,2.4-0.4,2.8-2.1C165.9,87,165.9,87,173.9,87z"/>
		<path class="st8" d="M528.5,362.2c3.2,4.7,7.3,0.4,11.3,0.8c8,0.8,14.1,11.2,9.1,20.1c-4.1,7.3-10,12.5-18.1,15.2
			c-4,1.3-6.4,4.4-6.8,8.7c-0.2,1.8-1,2.7-2.6,3.1c-7,1.9-14.1,3.8-21.1,5.7c-0.6,0.2-1.7,0.3-1.9,0c-4.6-6-13.1-6.4-17.8-12.6
			c-4.9-6.4-9.2-12.9-11.2-20.7c-0.7-2.7,0.2-4.1,3.1-5.1c12.4-4,25.1-6.9,37.7-10.4C516,365.4,522,363.9,528.5,362.2z"/>
		<path class="st1" d="M290,466c-4.1,1.8-7.8,5-12.9,3.3c-0.7-0.2-1.9,1.2-2.8,1.8c-4.7,3.3-10.7,2.8-13.6-2.2
			c-6.3-11-14.1-21.3-17.8-33.6c-2.4-7.9,1.5-15.2,9.5-17.4c1.3-0.3,2.6-0.7,3.9-0.9c4.9-1,6.6-3.4,5.1-8.1
			c-0.9-2.9-1.4-5.3,2.6-5.9c3.2-0.5,6.7-3,8.4,2.5c2,6.2,3,6.5,9.2,4.5c13.1-4.1,19.9,3.5,21.4,16c0.4,3.3,0.1,6.7,0.1,10
			c-3.4,0.4-4.9-2.3-6.8-4.2c-1.8-1.7-3.1-3.9-5.9-5.9c0.5,7.7-0.2,14.8,0.6,22C291.6,453.9,292.5,460.1,290,466z"/>
		<path class="st6" d="M395,62.2c0-12,4.7-18.3,16-22.4c4.7-1.7,9.5-3,14.4-3.6c6.8-0.9,12.9,0.3,18.2,5.8
			c12.1,12.7,12.5,28.4,0.5,41.4c-0.9,1-1.9,1.9-2.8,2.8c-9.9,9.9-11.1,10-24.4,4.8c-7.5-3-14.6-6.1-18.5-14
			C395.9,72.3,394.8,67.4,395,62.2z"/>
		<path class="st3" d="M101,130c1.6-2.8,3.2-2.1,5.2-0.3c4.1,3.7,7.5,8,9.3,13.3c0.5,1.4,0.6,3.1,2.9,1.9c3.2-1.7,3.8,1.2,4.3,3.1
			c1.8,6.1-1.8,16.9-7.2,20.7c-2.7,1.9-4.7,4.7-8.2,5.5c-4.5,1-7.8,2.9-5.1,8.4c0.8,1.7-0.1,2.4-1.6,2.8c-1.9,0.5-3.8,1-5.7,1.7
			c-2.3,0.8-3.7,0.5-4-2.4c-0.4-3.9-2.4-4.9-6.5-4c-10.8,2.6-23.4-3.5-27.3-12.7c-1.1-2.6-2.8-5.6,1.7-7.2c2-0.7,1.3-2.8,0.8-4.4
			c-1.8-5.5,0.5-10.5,1.8-15.6c0.7-2.7,3.1-3.3,5.6-1.7c2.5,1.2,3.7,3.7,5.7,5.5c2.6,2.3,4,1.8,4.9-1.4c0.4-1.4,0.5-3,0.9-4.4
			c1.7-6.1,6.5-7.5,11.4-3.5c2.1,1.7,3,5.9,6.1,5c2.7-0.7,1.4-4.7,2.6-7.1C99.2,131.9,100.1,130.9,101,130z"/>
		<path class="st6" d="M740,307c6.6,9.7,9.5,20,4.7,31.5c-2,4.9-5.4,7.4-10.6,8.6c-10.6,2.5-21.1,5.6-31.7,8.2
			c-7.9,1.9-14.4-0.6-18.9-7.6c-4.4-6.7-6.1-14.3-5.5-22.3c0.1-1.4,0.6-2.2,2-2.4c1.3-1.7,3.1-2.5,5.1-3
			c16.4-4.5,32.8-8.9,49.2-13.3C736.2,306.2,738.2,305.6,740,307z"/>
		<path class="st3" d="M188,214.4c0-10.7,5.3-19.2,13.6-21.6c1.4-0.4,3-0.9,4.4-0.7c3.8,0.7,6.7-0.4,9-3.4c1.3-1.7,2.9-2.2,4.7-0.5
			c1.7,1.6,1.8,3.2,0,4.7c-7.7,6.4-6.6,15.4-6.3,23.6c0.3,7.5,6.8,12.1,12.3,16.2c7.7,5.9,16.1,10.9,24.6,15.7
			c3.6,2.1,5.2,6,6.5,9.8c0.5,1.6-0.5,3.1-2.3,3.9c-9.9,3.8-19.6,4.5-29.3-0.8c-8.7-4.8-17.6-9.4-24.4-16.9
			C193.2,235.7,187.9,226.2,188,214.4z"/>
		<path class="st2" d="M1096,124c-2.9-11.1-5.6-22.1-8.7-33.2c-0.8-2.8-0.7-4.1,2.5-4.9c15.9-4.1,31.9-3.1,48-2.4
			c4.8,0.2,10.5,1.3,14.7-3.4c1.7-2,4.3-1.7,6.2,0.3c1.9,1.9,1.6,4.2-0.5,5.6c-2.7,1.8-3.4,4.4-4.1,7.1c-1.5,5.6-2.8,11.2-4.2,16.9
			c-0.6,2.3-2.3,3.6-4.5,4.3c-14.7,4.2-29.6,8-44.4,11.9C1098.9,126.7,1096.8,126.9,1096,124z"/>
		<path class="st3" d="M1010,495c-14.7,5.9-31.8-2.2-37.1-18.7c-2.7-8.5-4-16.6,3.6-23.4c5-4.4,10.8-5.6,17.2-4.8
			c1.5,0.2,2.9,0.8,4.3-0.2c0.9,1.4,1,3.5,3.7,1.1c9.2-8,19.7-5.3,24.7,5.7c5.9,12.9,1,29.8-12.9,35.9
			C1011.5,491.5,1010,492.6,1010,495z"/>
		<path class="st6" d="M518,470.4c0-5-0.1-8.8,0.9-12.6c1.2-4.2,1.4-8-1.5-12.2c-3.3-4.7-1.7-7.1,4.1-8.9c1.1-0.3,2.2-0.6,3.4-0.9
			c7.5-1.8,9-0.6,8.5,7.5c-0.1,2.6,1.2,4.6,2.9,6.6c6.6,7.7,12.7,15.8,14.2,26.3c0.5,3.6,0.4,7.3,0.7,10.9c0.5,5.3,3.9,9.4,5.9,14.1
			c3.7,8.7,2.8,10.6-6.1,13c-5,1.3-9.9,2.7-14.8,4.3c-4.1,1.3-6.3-0.3-7.8-3.9c-1.3-3.2-1.3-6.5-1.4-9.8c-0.2-5.3-0.8-10.6-3.7-15.3
			C519.4,483.3,516.9,476.7,518,470.4z"/>
		<path class="st3" d="M879.5,27.2c3-5.7,3-5.7,7.9-2.1c2.4-6.5,5.6-7.4,11.6-3.9c5.3,3.1,7.1,8.1,9,13.2c2.9,7.9,4.4,15.9,4.1,24.4
			c-0.3,8.5-3.9,14.6-11.5,18.3c-8,3.8-15.8,2.4-21.5-3.8c-10.4-11.4-14.2-25.4-12.3-40.5C867.8,24.7,872.8,23,879.5,27.2z"/>
		<path class="st8" d="M346,196c1.7-1.3,3.8-2.3,5.2-3.8c3.4-3.6,7.1-2.4,10.5-0.6c2.6,1.4,3,7.3,1.3,10.6c-0.7,1.4-2.7,2.1-2.4,4.1
			c6.6-0.5,7.4,0.7,5.5,7.2c-2.8,9.8-8.7,15.5-19,17.9c-12.9,2.9-25.4,7.4-38.4,10c-5.5,1.1-9.7-1.6-14-3.7
			c-2.3-1.1-4.3-3.1-6.2-4.9c-3.3-3.1-2.8-5.3,1.4-6.9c1-0.4,1.7-1,2.2-1.9c8.7-1.3,17-3.9,25.3-7.6c0.3-1.6-1.7-2.3-2.5-3.6
			c-2.6-4.7-0.3-9,5-8.8c6,0.2,10.8-2.9,16-4.8C339.1,197.9,342.3,196.2,346,196z"/>
		<path class="st7" d="M983,398c-1.9,1.8-2.7-0.2-3.5-1.1c-16.3-16.2-32.5-32.5-48.7-48.6c-2.7-2.7-2.7-5.1,0.1-7.6
			c11.8-10.6,25.6-16.9,41.1-19.7c8-1.5,15.9-0.6,23.7,0.3c9,1.1,9.9,3.1,6.3,11.8c-3,1-6,0.4-8.9-0.4c-7-1.8-13.8-0.9-20.8,0.3
			c-3.7,0.7-4.8,2.5-3.6,5.9c3.2,9.6,5.1,19.6,8.1,29.3c2.6,8.3,4.2,16.8,6.6,25.1C983.9,394.9,984.1,396.5,983,398z"/>
		<path class="st3" d="M66.2,462c3.7-0.7,4.2,1.3,4.5,2.8c1.3,6.1,4.7,10.8,9.3,14.9c2.7,2.4,3.5,6,4.4,9.3
			c3.1,11.2,5.9,22.5,9,33.6c1,3.4,0.1,5-3.2,5.8c-7.5,2-15,4.1-22.6,6.2c-3.1,0.9-3.8-1.5-4.5-3.5c-1.8-5.7-3.5-11.4-5-17.2
			c-1.6-5.7-3-11.5-4.4-17.3c-1.2-5.1-1.5-10.2,0.4-15.2c1.3-3.2,1-6.5,0.2-9.8c-1.1-4.3-0.6-7.5,4.9-8
			C62.1,463.4,64.7,462.3,66.2,462z"/>
		<path class="st3" d="M864,392c3.4-3.1,6.8-6.2,10.6-9.8c0.5,5.1-1.7,9.1-2.7,13.3c-1.8,7.9-3.6,15.8-7.6,23
			c-8.5,15.4-25.9,17.5-39.7,8.5c-7.6-5-10.4-12.4-10.6-21.2c-0.3-13,5.6-24.6,8-38.2c3.6,5.1,2.4,10.8,6,14.5
			c4.2-0.4,6.7,1.3,5.4,4.3c-3.3,7.4,0,14,1.8,20.7c0.6,2.2,0.8,4.5,2,7.6c0.8-4.9,3.2-6.9,7.5-6.6c1.3,0.1,2.4-0.9,3.5-1.8
			c3.3-2.8,3.1-4-0.9-5.5c-5.2-2-5.7-3-4.3-8.1c1.5-5.2,3.1-6.2,8.1-5.3C855.7,388,860.2,389,864,392z"/>
		<path class="st7" d="M726,84c0.3-14.6,7.2-25.2,20.3-30.9c12.5-5.5,24.9-4.3,36,4.6c3.3,2.6,6.2,5.3,7.7,9.3
			c-0.2,2.7,0.3,5.8-3.4,6.8c-2.8,0.2-6.3-1.8-8,1.5c-1.8,3.6,3.1,4.4,3.9,7c-0.4,4.2-3.4,6.7-6.5,8.8c-9.2,6.3-19.5,8.8-30.2,6.1
			C737.8,95.4,731,90.8,726,84z"/>
		<path class="st1" d="M455.4,140.8c6,3.4,8.3,0.8,10.3-4.5c1.5-4.1,5-7.4,9.3-9.3c1.7-0.8,2.8-0.7,3.5,1.2c0.6,1.6,0.2,2.4-1.4,3
			c-4.4,1.6-6.3,5.6-8.7,9.1c-1.6,2.3-1.8,4.3,2,4.8c3,0.4,3.9,1.6,1.2,3.9c-1.1,0.9-1.2,1.8-0.2,2.9c6.1,7.2,4,15.1,1.2,22.6
			c-6.9,18.3-21.7,27.3-39.6,32.3c-2.3,0.6-4.5,0.1-5.5-2.2c-1-2.4-1.1-5.1,1.3-6.8c11.3-7.7,14.1-19.1,14.2-31.7
			c0-8.5,2.6-15.3,11.1-18.7C457.2,146.2,455.3,143.6,455.4,140.8z"/>
		<path class="st7" d="M367,284c0.2,1.2-0.3,2.9,1.9,2.5c1-0.2,1.9-0.4,2.9-0.6c9.7-2.3,11.7-1.5,14.9,8c2.2,6.4,4.5,12.8,4.2,19.7
			c-0.1,4-1.6,6.7-6.1,7.7c-6.1,1.3-6,1.6-3.7,7.1c2.7,6.4,1.6,8.3-5.4,9.8c-0.6,0.1-1.2,0.5-1.8,0.8c-2.1-0.6-3.9-1.4-5.4-3.2
			c-11.9-13.9-25.5-26.1-38.3-39.2c-1-1-2.7-1.6-2.4-3.5c1.4-1.9,3.6-2.4,5.6-2.9c9.2-2.3,18.2-5.2,27.3-7.4
			C363,282.3,365.4,281.2,367,284z"/>
		<path class="st3" d="M1107,357c-1.2-0.1-2.5,0.1-3.4-0.4c-4.6-2.2-8.6-0.8-12.5,1.9c-5.8,4-12.1,6.1-19.1,3.1
			c0.3-1.2,2.6-1.8,1.5-3.2c-2.9-3.7-0.8-7,0.4-10.3c1.1-3,1.4-5.8,0.7-9.1c-0.8-4.3,0.8-8.7,3.2-12.1c2.9-4.1,4.1-8.5,5.1-13.2
			c0.7-3.3,1.2-8.2,4.2-8.9c4.1-1,8.1,2.3,11.2,5.2c1.7,1.7,3.3,3.9,4.1,6.2c1.4,3.9,3.8,6.8,7.5,8.1c2.7,1,3,4.6,6.1,4.7
			C1116.4,339.4,1114,349,1107,357z"/>
		<path class="st5" d="M552.8,250.4c0.7-14.1,4.8-26.6,13.1-37.4c4.4-5.7,10.3-9.9,17.8-10.9c2.5-0.4,4.6-1.5,6.5-3.3
			c3-2.9,6.6-2.2,7.6,1.8c0.6,2.3,2,3.7,3.5,5.3c9.1,9.6,11.5,21.1,10.1,34c-1.1,9.7-3.5,18.9-9.2,27c-6.8,9.9-15.8,16.9-26.8,21.3
			c-4.2,1.7-7.1,1-10.1-3.1C557.3,274.5,553.7,262.7,552.8,250.4z"/>
		<path class="st7" d="M346,196c-8.8,3.8-17,9.6-27.2,9c-1.6-0.1-3.1,0.2-3.5,2c-0.4,1.9-0.5,3.9,1,5.7c1.2,1.5,3.5,2.1,4.2,5
			c-9,1.2-16.7,7.1-26.1,7c-0.8,0-1.6-0.4-2.3-0.7c-2.6-0.6-5-1.4-7-3.4c-2.7-2.7-2.4-5.7-1.3-8.7c1.1-3.2,3.5-3.9,6.7-3.9
			c2.6,0,5.1,2,8,0.6c-2.4-4.9-1-8.9,2.9-12.3c1.5-1.3,1.6-2.6,0.7-4.4c-2-3.9-0.8-7.2,2-10.4c3.1-3.6,6.7-7,8-11.8
			c0.7-2.6,1.8-2.3,3.4-0.7c2.9,2.9,6.7,4.1,10.5,5.3c0.3,0.1,0.6,0.2,0.9,0.3c2.1,0.5,5.4,1.5,5.4,3.1
			C332.5,187.1,346.4,186.2,346,196z"/>
		<path class="st8" d="M1073,435c-2.5-1.3-7-1.4-3.7-6.2c0.2-0.3,0-1-0.2-1.4c-3-5.7-2.1-10.5,3.4-14.1c1.5-1,0.7-2.4,1-3.6
			c1.4-4.9,4-8,9.5-7.6c2.2,0.1,3.6-0.6,4.8-2.6c2.7-4.3,8.1-5.4,12.3-2.7c1.7,1.1,2.5,0.6,3.9-0.2c4.8-2.7,9.2-1.9,13,2.1
			c0.9,0.9,1.4,2.1,3,2.3c6.4,0.8,8.5,2.9,9.6,9c0,0.2-0.1,0.4,0,0.5c4.1,4.5,1.1,9.7,1.3,14.5c-3.3-5.2-7.7-2.8-12-1.8
			c-9.2,2.2-18.2,4.9-27.4,7.2C1085.4,432,1079.4,434.1,1073,435z"/>
		<path class="st2" d="M1095,546c-4-13,2.3-23.2,13.1-29.4c11-6.3,22.3-5.6,33.1,0.6c3.4,2,7,3.3,10.7,3.5
			c7.3,0.4,12.6,3.5,14.6,10.5c2.3,7.9-0.6,14.7-6.5,20.2c-2.2,2-4.7,3.7-7,5.6c-7.4-6.4-13.8-13.9-21.2-20.4
			c-9.1-7.8-19-8.3-28.2-1.4c-2.2,1.6-3.8,3.7-5,6.1C1097.6,543.1,1097,545.1,1095,546z"/>
		<path class="st4" d="M806,265c6.4-1.6,12.8-3.2,19.2-4.9c2.4-0.6,4.8-0.8,6.3,1.4c5.7,8.5,11.6,16.8,14.7,26.6
			c0.4,1.2,0.6,2.6,0.8,3.8c-2.6,2.2-6,2.7-9.2,3.4c-8.5,2.1-16.9,4.5-25.5,6.7c-4.7,1.2-5.1,2.4-2.6,6.5c1.6,2.6,3.8,4.5,6.3,6.3
			c1.4,1,3.4,1.7,2.9,4.1c-9.7,3.8-25.5-2.6-27-13c1.5-2.4,4.1-2.7,6.5-3.2c3.4-0.7,4.5-2.5,4.2-6c-0.6-7.4-0.3-14.9-0.2-22.4
			C802.6,270.9,802.6,267.3,806,265z"/>
		<path class="st7" d="M21,416c-6.2-5.1-6.7-9.4-2.4-16.4c5.3-8.6,10.1-17.5,15.2-26.2c4.8-8.3,9.7-16.5,14.5-24.7
			c1.7,0,1.8,1.4,2.2,2.4c1.1,2.7,2.3,2.5,4.3,0.7c2.2-1.9,4.9-3.4,7.4-4.9c2.4-1.4,3.8-0.9,3.7,2.1c0,2.5,0.4,5.1-0.1,7.4
			c-1,4,0.5,5.1,4.1,4.5c0,2.7-2.2,2.3-3.6,2.2c-8.9-0.7-13.1,5-16.4,11.6c5.2,1.1,9.7-2.8,14.9-1.7c-1.8,4.3-4.5,8.1-7,12
			c-3.4,4.3-7.9,5.7-13.2,5.4c-0.8-0.1-1.7,0-2.5,0.3c-2.4,0.8-6,5.4-5,6.7c2.1,2.7,4.9,1.7,7.6,0.5c2.3-1,3.9-3.9,7-2.9
			c-2.3,4.8-4.5,9.8-8,14c-2.8,1.8-5.8,3.3-9.2,3.3c-3.4,0-6.5,0.1-8.8,3.3C24.8,417.3,22.8,417.2,21,416z"/>
		<path class="st1" d="M1095,546c4.7-11.3,12.6-17.4,22.4-16.9c4.7,0.2,9.1,1.6,12.9,4.7c7.8,6.2,14.4,13.7,21.5,20.7
			c0.6,0.6,0.8,1.7,1.2,2.6c-9.7,4.9-19.8,8.5-30.8,7.9c-10.5-0.6-20.2-3.5-25.8-13.8C1095.4,549.4,1094.9,547.9,1095,546z"/>
		<path class="st2" d="M786,73c3.6-0.5,2.1-4.4,4-6c11.1,16.4,4.3,40.3-14.3,48.9C751,127.2,725.3,109.5,726,84
			c5.1,2.1,8.4,6.8,13.3,9.3c9.6,4.9,19,4.5,28.5,0.7c6-2.4,11.6-5.4,14.1-12C784.8,79.6,784.8,76.1,786,73z"/>
		<path class="st5" d="M958,239c5.1,13.1,4.2,26.3,1.1,39.8c-2.5,10.7-16.6,16.3-26.2,6.3c-7.8-8.1-13.5-17.6-17.3-28.2
			c-0.4-1.2-0.4-2.6-0.5-3.9c1.8-3.8,6.9-6,11.5-4.8c0.6,0.2,1.3,0.4,1.9,0.7c10,4,10,4,4.2,13c-1.5,2.3-0.5,2.7,1.7,3.1
			c6.5,1,7.4,0.8,16.3-5.6c-1.5-1.5-3.5-0.8-5.1-1.3c-3-0.9-5.8-2.1-6.9-5.2c-1-2.8,1.5-4.6,3.2-6.3
			C946.3,242.1,951.4,238.9,958,239z"/>
		<path class="st7" d="M864,392c-4.9-1.3-9.8-2.4-14.7-3.9c-2.1-0.7-3.1-0.2-4,1.5c-3.5,6.3-2.5,9,4.5,10.3c4.1,0.7,4,2.5,1.8,4.9
			c-2.5,2.7-4.8,6.2-9.6,4.8c-2.2-0.7-2.6,1.2-2.9,2.5c-0.4,1.9-0.8,3.8-2.5,6.5c-2.4-9-4.6-17-6.5-25.1c-0.3-1.3,0.3-3.1,1.2-4.7
			c2.4-3.9,1-6.2-3.4-6.8c1.7-7.1,6.2-12.7,10.2-18.6c1.8-2.6,3.8-5.1,6.2-7.1c6.4-5.6,14.2-3.8,17.3,4.1c1.5,3.8,2.5,7.9,2.5,12.1
			C863.9,379,864,385.5,864,392z"/>
		<path class="st1" d="M161,10c4.7-5.7,11-8.4,18.1-6.6c7.8,1.9,13.2,7.1,15,15.4c1.9,8.8,1.1,17.4-2,25.8c-3.2,8.6-11,12.4-20,9.4
			c-2.6-1.1-2.8-3.5-3.3-5.8c-2.6-10.7-5.4-21.3-7.9-32C160.2,14.1,159.7,12,161,10z"/>
		<path class="st2" d="M887,176c-0.9-0.3-1.9-0.9-2.8-0.9c-2.6,0.1-4.4-1-4.7-3.5c-0.4-3.2,2.5-2.1,4.1-2.8c3.6-1.6,6-4.7,8.2-7.7
			c5.5-7.3,11.6-13.8,20.7-17c8.9-3.1,17.4-2.3,26,0.9c5.9,2.2,11.3,6.7,18.3,4.1c1-0.4,2.4-0.3,2.9,1.2s0.2,2.9-0.8,4.2
			c-1.4,1.8-3.8,2.8-4,5.5c-2.9,1.8-6.1,1.5-9.2,1.2c-2.6-0.3-4.9,0.1-7,1.7c-4.5,3.4-9.6,4.5-15.1,3.3c-2.2-0.5-4,0.2-5.6,1.5
			c-3.7,2.9-8,3.9-12.6,3.7c-3.6-0.2-6.8,0.8-9.8,2.9C893.2,176.1,890.4,178,887,176z"/>
		<path class="st7" d="M161,10c3.2,14.8,6.7,29.5,11,44c-5.2,6.5-11,7.4-18.3,3.5c-11.7-6.2-18-16.6-19.3-29
			c-1.2-11.2,9.3-21.4,22.7-19.3C158.4,9.4,159.7,9.7,161,10z"/>
		<path class="st3" d="M983,398c-4.7-17.7-8.9-35.6-14.2-53.1c-3.7-12.1-4.4-11.6,8-14.2c8.8-1.8,16.9,0.4,25.2,2.2
			c-2.4,9.8-4.7,19.5-7.3,29.3c-2.7,10.4-5.8,20.7-8.6,31C985.6,395.4,984.9,397,983,398z"/>
		<path class="st7" d="M1233,57c15.6,3.9,18.7,17.5,23.1,29.9c3.1,8.7,1.2,16.2-6.1,22.1c-3.1-1.2-5.1-3.7-7.2-6
			c-9.7-10.5-20.4-20-30.4-30.2c-1.4-1.4-2.9-2.8-3.5-4.8c0.7-2.8,3.9-3.5,5-6C1219.7,57.8,1226.1,56.4,1233,57z"/>
		<path class="st7" d="M1194,340c-5.4,1.6-10.7,3.4-16.2,4.8c-3.5,0.9-6.3-0.2-7.1-4.2c-0.8-4.8-4.2-9.2-2-14.5
			c0.2-0.5,0-1.5-0.3-1.9c-5.4-5.5-6.1-12.3-5.6-19.5c0-0.7-0.4-1.7-1-2.1c-2.9-2.3-2.8-5.4-2.8-8.6c0.5-2.7,1.8-4.4,4.7-4.7
			c1.5-0.2,2.9-0.9,4.3-1.3c7.7-2.5,13.4-0.6,15.6,7c3,10.3,7.3,20.3,8.3,31.1c0.3,2.7,1,5.2,1.9,7.7
			C1194.4,335.8,1195.5,337.9,1194,340z"/>
		<path class="st3" d="M328,294c2.1,0,3.2,1.7,4.4,2.9c10.9,10.9,21.9,21.8,32.7,32.8c3,3,5.1,6.9,8.8,9.3c-11.5,3-23,6.1-34.5,9
			c-4.3,1.1-8.2-1.1-8.2-5.3c0.1-6.4-2.1-12.4-2.3-18.7c1.2-8.9-2-17.3-3-25.9C325.8,296.4,326.1,294.8,328,294z"/>
		<path class="st9" d="M328,294c-2.1,5.2,0.8,9.9,1.6,14.8c0.8,5.2,2.2,10.2-0.6,15.2c-7.8-0.6-9.3-2.5-10.1-10
			c-0.8-6.8-1-13.6-4.6-20.1c-4.3-7.9-0.8-13.3,8.2-13.9c2.1-0.1,3.8-0.7,5.1-2.4c4.6-5.8,10.6-7.7,17.6-5.7
			c1.6,0.5,3.2,1.4,4.7,0.1c3.6-3.1,8-2.1,12-1.8c7.2,0.5,9,5.9,5.1,13.9c-4.5-1.7-8.4,1-12.4,2.1C345.7,288.6,336.5,290,328,294z"
			/>
		<path class="st1" d="M1091,429c10.5-2.7,21.1-5.1,31.5-8.2c4.6-1.4,7.9-1.9,8.5,4.2c1.2,13.2,2.4,26.4,3.8,39.6
			c0.4,3.3-0.5,4.7-3.8,4.4c-2.1,1.1-3.5-0.3-4.8-1.5c-11.6-11.1-23-22.5-34.1-34.1C1091,432.2,1089.7,430.9,1091,429z"/>
		<path class="st2" d="M1059,252c-12.3,5.8-20.2,5.1-27.5-2.9c-3.1-3.4-3.7-7.8-4.9-11.8c-1.7-5.9-3.3-11.8-2.5-18.4
			c3.2,0.8,4.4,4.4,7.8,5.8c-1.2-4.5-1.1-8.5-0.9-12.6c0.1-4,2.4-5.8,6.3-4.7c4.4,1.3,7.9,4,10.7,7.7c1.9,0.8,2.6,2.5,3,4.3
			c2.1,9.4,6,18.2,8.3,27.5C1059.7,248.6,1060.3,250.3,1059,252z"/>
		<path class="st2" d="M1091,429c0.4,0.9,0.6,2,1.2,2.6c12,12.1,24.1,24.1,36.2,36.2c0.6,0.6,1.7,0.8,2.6,1.2
			c-8.6,2.7-17.2,5.1-26,7c-2.1,0-1.1-1.5-0.9-2.3c0.3-1.7,1-3.6-0.2-4.8c-3-3.2-6.1-6.4-9.2-9.4c-1.7-1.7-4-0.5-5.8,1.1
			c-1.1,1.1-1.7,3-3.9,2.4c-3.3-7.7-6.7-15.3-10-23c-0.7-1.7-1.3-3.3-2-5c4.1-3.5,9.6-3.1,14.3-4.9
			C1088.5,429.7,1089.7,429.4,1091,429z"/>
		<path class="st1" d="M1209,68c7.9,7.7,15.7,15.6,23.8,23.2c6.1,5.6,11.7,11.6,17.2,17.8c-10.1,9.7-28,9.3-37.1-0.6
			c-4-4.3-4.6-10-5.2-15.3C1206.7,84.7,1205.6,76.2,1209,68z"/>
		<path class="st3" d="M958,239c-3.4,2.6-8.4,2-11.6,5.3c-1.1,1.2-2.8,2-3.6,3.3c-1.1,1.7-4.4,2.7-3.1,5.1c1.4,2.6,4.1,4.2,7.4,4.4
			c2.2,0.1,5.5-0.8,5.9,1.8c0.3,2.1-2.9,3.3-5.1,4.1c-0.6,0.2-1.6,0.2-1.8,0.7c-3.5,5.7-8.9,2.2-13.5,3.1c-1.4,0.2-2.2-0.7-2.8-1.6
			c-0.9-1.3,0-2.2,0.8-3c0.3-0.4,0.7-0.7,1.1-1.1c1.8-1.8,4-3.4,4.2-6c0.2-4-3.8-2.1-5.5-3.4c-5.6-4.3-10.5-2.3-15.2,1.5
			c-4.4-7.6,1-19.8,8-24c11.3-6.8,24.1-5.3,32.3,3.8C956.9,234.6,958.1,236.5,958,239z"/>
		<path class="st3" d="M109,215c3.5-2,7.5-2.1,11.7-3.6c-2.2,8.8,0.7,15.4,6.5,21.4c5.5,5.6,7.3,12.6,4.9,20.2
			c-2.7,8.6-0.3,15.8,6.2,21.6c5.6,4.9,6,11.1,5.7,17.7c-0.1,2-1.3,2.6-2.8,3c-2.4,0.6-4.8,1.1-7.2,1.6c-2.8,1.2-2.8-0.9-2.7-2.5
			c0.6-7.4-2.6-13-7.4-18.2c-5.2-5.6-6.7-12.6-4.6-20c2.3-7.9,0.3-14.2-5.1-20.1c-4.1-4.5-7-9.7-6.7-16.1
			C107.6,218.3,107.6,216.4,109,215z"/>
		<path class="st3" d="M125,299c-3.1,3-7.6,1.8-11.9,4.3c2.6-10-1.1-17-7.5-23.4c-5.7-5.7-5.6-12.9-3.5-20c2.7-9-1.7-15.3-7.1-21.4
			c-1.6-1.8-3.5-3.2-4.2-6C88,221.3,89.5,218.8,101,217c2.4,0.3,1.5,2.2,1.5,3.4c-0.3,6.2,1.9,11.4,6.1,15.8
			c6.1,6.2,8.2,13.5,6.1,22c-2.1,8.4,0.3,15.2,6.3,21.3C126.3,285,128.4,291.5,125,299z"/>
		<path class="st10" d="M683,309c0.3-4.2-2.5-5.3-5.9-6c-1.7-0.4-4.3-0.2-4.6-2.2s2.2-2.7,3.7-3.6c7.5-4.3,15.4-6.6,24.1-5.3
			c6.7,1,13-1.4,18.9-3.7c9.3-3.7,16.9-0.5,24.3,4.2c7.3,4.7,12.3,11.5,15.4,19.6c1.1,2.9,2.3,6.1-1.7,7.6c-3.9,1.5-5.7-1.1-6.7-4.6
			c-2.8-10.1-9.1-17.1-18.5-21.5c-1.3-0.6-2.7-2.1-4.1-1.1c-1.9,1.3,0.3,3,0.1,4.6c0.2,2.3-1.7,2.8-3.2,3.2
			c-12.5,3.5-24.9,6.9-37.5,10.1C685.8,310.7,684,310.9,683,309z"/>
		<path class="st1" d="M906,492.3c0.1,9.4-7.8,17.5-17.3,17.7c-9.2,0.2-17.7-8.2-17.7-17.4c0-9.9,7.7-17.5,17.8-17.6
			C897.7,474.9,905.9,483.1,906,492.3z"/>
		<path class="st5" d="M861.6,536c-8.9,1-16.3-6.9-17.1-16c-0.8-9.5,8.5-19.6,17.3-18.9c10.1,0.8,17.6,7.8,17.3,18.1
			C878.7,529.6,872.4,536,861.6,536z"/>
		<path class="st1" d="M835,482.6c0-9.4,8.1-17.5,17.5-17.5c9.1,0,17.7,8.9,17.5,18.2c-0.2,9-8.3,16.7-17.7,16.8
			C843.1,500.1,835,492,835,482.6z"/>
		<path class="st1" d="M1233,57c-6.3,1.7-12.7,3.3-19,5c-3.5-1-7-2-10.5-3c-3.3-0.9-6.6-1.8-10.4-2.8c5.6-5,11.9-4,17.9-4.3
			c-4.9-4.7-9.7-9.3-14.4-13.9c7.2-3.2,12,0.2,17.4,3.6c-0.5-4.5-1.7-8.5,0-12.4c0.4-1-0.3-2.7,1.3-2.8c1.2-0.1,1.9,1.2,2.6,2.1
			c2.2,3,3.1,6.6,5,10.3c3.2-5,6.1-10,12.3-12.5c-1.7,6.9-3.2,13.2-5,20.2c5.7-3,10.5-6.9,17.6-5.2C1242.6,46.8,1237.8,51.9,1233,57
			z"/>
		<path class="st8" d="M887,176c2.7-0.1,5.6-0.7,7.4-2.4c3.6-3.5,7.8-3.9,12.4-3.6c2.2,0.1,4.5,0.3,6.3-0.9c4.6-3,8.8-5.8,15-4.1
			c3.9,1.1,7.7-1.1,10.8-3.9c1.8-1.6,3.7-2,6.3-1.4c3.1,0.7,6.5,0.3,9.8,0.3c0.2,3.9-2.2,7.2-2.6,11c-0.2,1.5-1.7,1.7-3,2.1
			c-12.8,3.9-25.7,7.1-38.8,10c-2.1,0.5-4.3,0.9-6.1,2c-5.4,3.5-8.9,0.7-12.2-3.3C890.6,179.8,888.8,178,887,176z"/>
		<path class="st8" d="M1194,340c-2.3-7.3-2.7-15.1-5-22.1c-2.4-7.5-3.8-15.2-6.4-22.6c-2.2-6.1-8-8.7-13.9-6.1
			c-3.3,1.5-7.8,0.5-9.7,4.7c-0.1-5.1,3.6-8.2,6-12c3.3-1.9,6.4-4,8.8-7c1-1.2,2.2-2.6,4.2-2c0.4,3.7,2.3,5.6,5.8,7.1
			c6.7,2.7,9.3,7.5,8.6,14.2c-0.1,0.6-0.3,1.7,0,1.9c5.5,3.4,3.3,10.1,6.4,14.6c0.2,0.3,0.5,0.7,0.4,0.9c-3.5,6.3,3.6,9.8,4,15.2
			c0.2,2.1,0.4,4.3,1,6.3c0.9,2.8-0.4,4.1-2.7,4.9C1199.1,338.8,1196.8,340.5,1194,340z"/>
		<path class="st11" d="M821,188.2c1.3,18.2-15.8,32.9-33.1,32.9c-16.5,0.1-33.5-14.8-32.9-34.1c0.5-17.9,14.2-32.8,34.3-32.6
			C807.3,154.7,822.5,170.6,821,188.2z"/>
		<path class="st7" d="M478,250c-1.5-7.5,0.3-14.1,6.5-18.5c6-4.3,12.9-4.8,19.7-0.9c6.5,3.7,9.8,13.5,6.9,21.4
			c-2.6,7.3-11.3,12.2-18.7,10.6c-1.4-0.2-2.9-0.4-4.4-0.6c-2-3,0.1-5.3,1.3-7.7c0.7-1.4,2.4-2.9,1.3-4.5c-1.3-1.9-3.3-0.5-5-0.3
			C483.1,249.8,480.7,251.7,478,250z"/>
		<path class="st5" d="M149,374c6.4,3.5,8.6,8.6,5.9,14.2c-2.7,5.7-7.9,7.2-14.8,4.3c-10.5-4.3-17.5-11.8-20.6-22.7
			c-1.6-5.6,2.2-11.2,8.3-12.6c5.2-1.2,10,2.1,11.2,7.8c0.6,1.5-0.9,2.4-1,3.7c-0.4,3.9,3.7,7.3,7.4,6
			C146.6,374.3,147.6,372.9,149,374z"/>
		<path class="st1" d="M156,343c-1.9-5.2,0.4-10.8,5.2-12.6c5.3-1.9,12.2,0.9,13.7,6c3,10.6,0.9,25.8-10.1,34.3
			c-2.8,2.2-9.1,1.8-12.2-0.7c-3.6-3-4.5-6.9-2.9-11.2c0.5-1.4,1.5-2.6,2.3-3.8c1.6-1.3,3.8-0.4,5.4-2
			C160.3,350,159.9,346.8,156,343z"/>
		<path class="st1" d="M125,352c-5.5,4.5-10.8,4.3-15.2-0.7c-3.9-4.4-3.4-9.8,1.8-14.3c8.5-7.4,18.2-10.5,29.4-7.8
			c6.1,1.5,9.7,6.4,9,11.9c-0.6,4.9-4.9,7.9-11.5,7.9c-0.5,0-1,0-1.5,0c-1.6-2.5-3.6-4.1-7-3.5C126.2,346.2,125.7,349.1,125,352z"/>
		<path class="st3" d="M92,56.7c-0.3,9.4-1.7,18.2-10.2,24.1c-1.8,1.3-4.1,2.6-6,2c-4.7-1.3-8,1.3-11.8,3
			c-7.8,3.5-14.3-0.1-19.8-5.4C36.7,73.2,31.6,64.6,32,53.6c0.3-8.3,7.2-16.3,15.6-16.6c5.8-0.2,10.9-1.5,16.4-4.1
			c13.5-6.5,26.4,1,28,18.2C92.1,53,92,54.9,92,56.7z"/>
		<path class="st2" d="M699,184c1.5,9.9-7.1,18.2-13.9,20.7c-7.9,3-19.4,2-25.5-5.7c-0.8-1-1.7-2-2.5-3c2.6-6,7.9-8.7,13.5-10.7
			C679.8,181.8,689.3,180,699,184z"/>
		<path class="st3" d="M819,319c-0.7-1.7-2.4-2.1-3.9-2.9c-2.5-1.4-4.5-3.5-6.1-5.7c-4.7-6.1-4-7.7,3.5-9.7
			c10.2-2.7,20.4-5.5,30.6-8.2c1.3-0.3,2.6-0.3,3.9-0.5c1.9,5.4-1.3,15-6.6,18.7c-3.1,2.2-6.3,4.2-9.7,5.8c-2.3,1-2.9,2.3-2.7,4.5
			c-2.9,1.2-4.8-0.9-7-2C820.3,319,819.7,319,819,319z"/>
		<path class="st4" d="M125,299c1-8.4-1.1-15.4-7.6-21.4c-6.2-5.8-5.7-13.7-3.9-21.3c1.5-6.3,0.6-12.2-3.9-16.6
			C103,233.3,100,226,101,217c2.5-1.5,5.3-1.5,8-2c-1,8.8,1.8,15.9,8.1,22.4c4.8,4.9,6.1,11.4,3.8,18.4c-2.5,7.7-0.9,14.7,4.9,20.6
			c5.2,5.2,8.1,11.2,6.6,18.7c-0.3,1.4,0.4,1.8,1.5,1.9C131.1,298.3,128.2,299,125,299z"/>
		<path class="st8" d="M683,309c6.6,0.6,12.4-2.7,18.6-4c7.9-1.7,15.7-4,23.4-6.2c1.1-0.3,1.9-1.2,2.9-1.8c4,3.3,8.6,5.9,12,10
			c-15,4-30.1,7.9-45.1,11.9c-5,1.3-9.9,2.7-14.9,4.1c-1.2-2.8-0.6-5.4,0.9-8C682,313.2,683.2,311.3,683,309z"/>
		<path class="st9" d="M478,250c3.2-0.8,6.4-1.5,9.6-2.4c1.8-0.5,3.7-1.2,4.9,0.8c1.1,1.8,0.3,3.7-0.9,5.1c-2.1,2.5-3.5,5.2-3.6,8.5
			c-0.7,0.3-1.3,0.7-2,1c-4.9,0.9-9.6,2.5-14.5,3.5c-3.6,0.7-4.5,2.5-3.8,6c0.7,3.5,3.5,6.7,1.3,10.5c-6.5-2.9-12.7-6.2-18.5-10.3
			c-2.5-1.8-1.5-3.4,0.9-4.3c2.5-0.9,5-1.6,7.6-2.3c3.1-0.8,3.4-2.6,2.4-5.3c-1.6-4.8-0.4-6.8,4.6-7.9C470,252.1,474,251,478,250z"
			/>
		<path class="st4" d="M1059,252c-2-7.5-3.5-15.1-6.7-22.3c-2.1-4.7-1.9-10.1-4.3-14.7c1.5-3.4-1.4-6.2-1.1-10.1
			c7.6,4.6,13.8,10,19.4,16.6c7.4,8.8,5.1,16.2,1.1,22.2C1065.3,246.9,1062.6,250.1,1059,252z"/>
		<path class="st9" d="M806,265c-3.6,11.1-2,22.5-1.4,33.8c0.2,3.1-0.4,4.2-3,4.9c-3.2,0.8-6.4,1.6-9.6,2.3
			c-2.5-6.2-2.4-12.7-2.2-19.2c0.2-3.8,0.2-7.6,0.1-11.4c0-3.9,1.3-6.6,5.5-7.4C799.1,267.2,802.5,266,806,265z"/>
		<path class="st6" d="M101,130c-0.7,3-2.3,5.8-2.3,9.1c0,1.2-0.2,3.3-2,3.6c-1.7,0.3-3.3-0.7-4.3-2.1c-1.4-2-2.6-4.2-4.9-5.6
			c-3.6-2.2-6.5-1.1-7.5,2.9c-0.5,2.1-0.7,4.2-1,6.3c-0.5,3.2-3.4,4.8-5.6,2.6c-2.4-2.3-5.5-4.3-6.4-8c-0.1-3.2,2.3-5.8,2.3-9.1
			c0-1.4,1.6-2.2,2.9-2.4c2.7-0.4,4.9-1.2,6-4.1c0.2-0.6,1.6-1.4,2-1.2c5,2.9,11.9-1.5,16.1,4.5C97.4,128.2,98.7,129.9,101,130z"/>
		<path class="st10" d="M290,466c-0.3-12.3-0.8-24.7-0.9-37c0-2-2.1-4.9,0-5.9c2.3-1.1,2.8,2.5,4.3,3.8c3.4,2.8,5.8,6.7,9.6,9.1
			c0,5.6,0,11.2,0,16.8C303,463.5,300.5,466,290,466z"/>
		<path class="st8" d="M1096,124c1.6,2.1,3.6,1.2,5.4,0.7c14.5-3.9,29-7.9,43.6-11.6c2.1-0.6,3.2-2.3,5-3.1c4,1.6,7.6-0.1,11.3-1.1
			c2.1-0.6,5.4-2.6,6.1-0.6c1,2.8-1,5.4-4.5,6.3c-21.5,5.6-42.9,11.4-64.3,17.1c-1,0.3-2,0.4-2.9,0.6c-2.8,0.5-4.2-1.7-4.7-3.5
			c-0.5-2,1.9-1.6,3.2-1.8C1096,126.7,1095.9,125.3,1096,124z"/>
		<path class="st6" d="M1010,495c-2.7-1.7-2.7-3.5,0.3-4.5c10.9-3.6,16.1-11.6,17.2-22.6c0.7-7-1.5-13.6-6.1-18.8
			c-4.3-4.9-13.8-4-19,0.9c-1.3,1.2-2,4-3.8,3.3c-2.3-0.9,0.2-3.6-0.6-5.3c6.3-5.7,13.4-7.5,21.6-5c3,0.9,5.4,2.9,7,5.4
			C1037.6,465.9,1031.9,490.1,1010,495z"/>
		<path class="st8" d="M618,27c3.6,2.4,8.1,2.3,12,4c-1.6,5-3.8,9.7-1.3,15.3c1.2,2.8,0.6,6.3-2.4,8.5s-5.3,0.4-7.6-1.3
			c-1.1-0.8-2.3-0.9-3.8-0.6c-2.3,0.4-4.1-0.3-5.1-2.8c-1.1-2.6-1-4.8,1.3-6.7C616.5,39.2,617.5,33.2,618,27z"/>
		<path class="st8" d="M1085,463c1.1-0.5,1.6-1.5,2.3-2.5c3-4.6,8.1-4.5,11,0.2c0.7,1.1,0.5,2.8,1.9,3.3c6.3,2.2,6.6,6.7,4.8,12
			c-4.5,1.3-9,2.7-13.6,3.9c-3.1,0.8-5.3-0.8-7.1-3.3s-1.2-4.7,0.7-6.6C1087.5,467.6,1086.4,465.3,1085,463z"/>
		<path class="st2" d="M561,37c-10.1-2.6-20.3-4.9-30-9c6.2-6.4,14.4-9,22.6-11.6c2.8-0.9,2.7,2,3.1,3.4
			C558.3,25.5,559.6,31.3,561,37z"/>
		<path class="st7" d="M626,122c5,3.5,10.6,2.5,15.8,1.4c8.8-1.9,18-3.5,24.8-10.4c1.6-1.6,2.6-0.1,3.8,0.9c1.5,1.4,1.7,2.6,0.2,4.2
			c-3.7,3.9-8.5,5.9-13.3,7.6c-7.9,2.8-16.1,4.8-24.6,5.2c-2.6,0.1-5.2-0.8-7.7-1.8C625.4,126.7,624.1,124.1,626,122z"/>
		<path class="st2" d="M985,266.3c0.3,2.4-1.2,4.5-2.8,5.6c-4.1,3.1-7,7.5-11.1,10.5c-1.4,1-2.7,2.2-4.4,1.1
			c-1.6-1.1-1.4-2.6-0.9-4.4c1.3-4.6,2.2-9.3,3.4-13.9c1.1-4.3,5.7-7.7,9.7-7C981.8,258.6,984.9,262.8,985,266.3z"/>
		<path class="st7" d="M489.2,336.6c-0.9,5.2,1.3,6.7,4.6,7.5c4,1,8,2.2,12,3.3c3.3,1,7.3,1.6,7.7,5.9c0.3,3.8-2.3,6.3-5.5,8.2
			c-1.8-7.5-8.8-6.4-13.8-8.4c-2.1-0.8-4.5-1-6.6-1.9c-6.3-2.7-6.9-6.3-2-11.3C486.4,339.1,487.2,338.4,489.2,336.6z"/>
		<path class="st1" d="M68,18.8c0.9,7.9-5.8,10.7-9.8,15.3c-0.6,0.7-1.9,0.7-2-0.3c-0.3-4.9-3.5-9.1-2.7-14.4
			c1-6.3,6.2-9.2,9.9-13.3c1.2-1.3,2.2-0.2,2.4,1.1C66.4,11.2,68.4,14.8,68,18.8z"/>
		<path class="st7" d="M469,283c-1-4.3-2-8.6-3-12.9c-0.5-2.1-0.1-3.4,2.2-4c5.4-1.4,10.8-2.8,16.2-4.3c1.1-0.3,1.4,0.3,1.6,1.2
			c-2.3,4-4.5,8-7,11.9c-3.1,4.8-5.2,9.7-2.1,15.7C473.9,287.9,470.5,286.4,469,283z"/>
		<path class="st1" d="M995.7,442.5c0.5-4.9,1.9-9.4,3.7-13.8c1-2.6,3.5-3.9,6.1-4.7c2.9-0.8,5.7-1.6,8.6-2.6c2.9-1,3.5-0.2,2.8,2.7
			C1013.5,437.7,1012.1,439,995.7,442.5z"/>
		<path class="st1" d="M21,416c2.3-0.4,5-0.2,5.8-3.4c0.1-0.5,0.9-1.3,1.3-1.3c5.5,0.3,10.6-1.3,15.9-2.3c-1.3,3.4-3,6.6-5.7,9.2
			c-2.2,2.1-5.2,3.7-7.6,2.4c-4.1-2.3-5.1,0.2-6.6,2.9c-1.6,2.9-3.4,5.7-5,8.5c-1,1.7-2.1,2.6-4,1.4c-2-1.2-1.9-2.8-0.8-4.7
			C16.5,424.5,18.7,420.2,21,416z"/>
		<path class="st4" d="M821,319c2.5,0,4.7,1.1,7,2c0.8,2.4,2.5,3.2,5,3c3.5-0.2,7-0.1,10.5,0c1.2,0,2.9-0.5,3.2,1.4
			c0.2,1.5-1.2,1.9-2.3,2.2c-8.7,2.5-17.5,5-26.3,7.2c-2.1,0.5-4.2,1-6.2,1.6c-1,0.3-2,0.7-2.6-0.5c-0.5-1.1,0.1-2,1-2.5
			c2.7-1.6,5.4-3.2,8.2-4.7C823.7,326,824.2,324.2,821,319z"/>
		<path class="st2" d="M507,9c-3.6,1.9-8.1,0.4-11.4,3.6c-3,2.9-8.2,4.3-4.7,10.2c0.8,1.5,0.1,3.6-0.9,5.2c-1-0.1-2,0-3-0.2
			c-5-1.1-5.3-1.8-1.8-5.5c1.9-1.9,1.7-3.6,0.6-5.7c-1.7-3.6-1.2-6.5,3.1-7.7c2-0.6,2.8-2,3.6-3.7c2-4.4,5.6-5.1,9.1-2
			C503.6,5,505.2,7.1,507,9z"/>
		<path class="st7" d="M635,110c0.2,1.1,0.7,2,1.9,1.9c5.9-0.4,12.1-0.4,16.6-5.2c1.6-1.6,2.9-2.1,4.7-1.1c1.4,0.8,3.6,0.9,3.6,3
			s-1.9,3-3.6,3.8c-9.6,4.6-19.5,7.6-30.2,4.6C629.9,114.3,632.3,111.9,635,110z"/>
		<path class="st1" d="M65,373c-4.5,1.5-8.9,3.7-14,3.1c-2-0.2-2.5-0.6-1.8-2.7c2.1-6.9,9.2-11.8,16.6-11.5c1.4,0.1,3,0.5,4.2-0.9
			c2.1,2.1,0.3,3.8-0.9,5.2C67.3,368.3,66.2,370.6,65,373z"/>
		<path class="st1" d="M1178,273c-2.4,1.5-4.1,3.6-5.9,5.7c-1.8,2.2-4.1,3.7-7.1,3.3c0.1-2.3-0.4-4.1-2.2-6.1
			c-3.5-4-2.2-7.2,2.9-8.6c1.9-0.5,3.8-0.9,5.7-1.5c1.9-0.6,4.3-1.6,5.5,0.2C1178.3,267.8,1179.8,270.3,1178,273z"/>
		<path class="st1" d="M52,395c-4.4,2.3-7.9,6.6-14,5.1c-2.9-0.7-3.3-1.5-2.2-3.9c1.9-4.2,4-8.3,9.7-7.2c5,1,8.4-2.4,12.5-4
			C56.2,388.4,54.8,392.2,52,395z"/>
		<path class="st7" d="M476.6,349.3c-0.9,4.1,1.3,4.8,3.3,5.5c3.4,1.2,6.9,2.1,10.4,3.1c1.9,0.5,3.4,1.6,3.6,3.6
			c0.3,2.4-1.6,3.8-2.8,5.6c-0.4,0.6-1.4,0.8-1.6,0c-1.8-7.2-8.6-4.3-12.9-6.3c-4.6-2.1-6.1-5.3-3-9
			C474.2,351.3,474.9,350.8,476.6,349.3z"/>
		<path class="st3" d="M401,478.6c-0.3,3.1-1.7,5.2-4.6,5.2c-2.1,0-4.4-1-4.3-3.8c0.2-3.8,3-7.4,5.8-7.8
			C401,471.8,399.5,476.7,401,478.6z"/>
		<path class="st3" d="M415,475.1c-0.6,2.4-1.1,4.7-4.1,4.9c-3.2,0.2-4.7-2-4.6-4.5c0.2-3.3,2.6-6.6,5.5-6.7
			C414.8,468.6,413.4,473.1,415,475.1z"/>
		<path class="st3" d="M384.3,475.7c0.7,3.8,5.5,7.5,0.2,10.8c-1.9,1.2-4.3,0.9-5.5-1.6C376.2,479.3,382.7,478.9,384.3,475.7z"/>
		<path class="st7" d="M149,374c-5.3,3.5-7.8,3.5-10.7-0.3c-2.3-3-3.4-6.1,0.7-8.7C141.1,369.4,144.3,372.5,149,374z"/>
		<path class="st4" d="M125,352c-1.1-2-1.6-4,0.4-5.8c2.7-2.5,6-2.5,9.3-2c2.7,0.4,2.2,2.9,2.3,4.8C132.6,348.4,128.7,349.8,125,352
			z"/>
		<path class="st3" d="M52.8,456.4c-0.7-0.1-1.4,0-1.7-0.9c-0.3-1-0.2-2.2,0.7-2.7c3.8-2,8.1-2.8,12.3-3.7c1.3-0.3,2,1,2.3,2.2
			c0.3,1.1-0.4,1.5-1.3,1.7C61.1,454.2,57,455.3,52.8,456.4z"/>
		<path class="st4" d="M156,343c4.5,0.1,5.6,2.7,4.6,6.6c-1.3,5.3-3.5,6.7-8.6,5.4C155.2,351.6,156.1,347.5,156,343z"/>
		<path class="st1" d="M982,68.8c-1.9,0-2.8-0.8-2.8-2.3c0-1.3,0.8-2.2,2.1-2.3c1.6-0.1,2.5,0.8,2.6,2.3
			C983.9,67.8,983,68.5,982,68.8z"/>
		<path class="st1" d="M1071.2,41.7c-1.6-0.3-2.2-1.2-2.1-2.5c0.1-1.3,1-2.1,2.2-2.1s2.3,0.6,2.2,2
			C1073.5,40.6,1072.3,41.3,1071.2,41.7z"/>
		<path class="st11" d="M1027.2,46.1c1.6,0.1,2.6,0.7,2.5,2.1c-0.1,1.1-1,2.2-2.3,2.1c-1-0.1-1.8-1-2-2
			C1025.1,46.8,1026.3,46.5,1027.2,46.1z"/>
		<path class="st6" d="M1132.5,15.1c1.2,0.2,2.1,0.7,2.1,1.8c-0.1,1.7-1.3,2-2.7,2c-1.2,0-1.8-0.7-1.6-1.9
			C1130.5,15.8,1131.4,15.2,1132.5,15.1z"/>
		<path class="st12" d="M1129.6,25.8c-1.2-0.1-1.7-0.9-1.9-1.9c-0.2-1.6,1-1.8,2.2-1.9c1.1,0,2,0.3,1.9,1.6
			C1131.7,25,1130.9,25.7,1129.6,25.8z"/>
		<path class="st10" d="M973.8,69.3c-0.3,1.4-1.2,1.7-2.3,1.5c-1.2-0.2-1.6-1.1-1.5-2.2c0.1-0.9,0.6-1.5,1.6-1.5
			C973.1,67.3,973.6,68.3,973.8,69.3z"/>
		<path class="st10" d="M1033,54.7c-1.2-0.2-1.8-0.9-1.8-2c0-1.5,1.1-2.1,2.2-2c1.1,0,1.6,1.1,1.4,2.1
			C1034.7,53.8,1034.1,54.6,1033,54.7z"/>
		<path class="st13" d="M1082.9,37.1c-0.1,1.2-0.6,1.9-1.9,1.7c-1.1-0.2-1.8-0.9-1.8-2c0-1.3,0.9-1.6,2-1.6
			C1082.4,35.2,1082.9,35.9,1082.9,37.1z"/>
		<path class="st10" d="M1138.2,19.6c1.3,0.1,1.7,0.9,1.7,2c0,1-0.6,1.9-1.7,2c-1.2,0.1-1.8-0.7-1.9-1.8
			C1136,20.4,1137.1,19.9,1138.2,19.6z"/>
		<path class="st10" d="M1026.6,55c-0.2,1.2-0.9,1.8-2.1,1.8c-1.3,0-1.6-1-1.5-2.1c0.1-0.9,0.6-1.6,1.6-1.5
			C1025.8,53.3,1026.5,53.9,1026.6,55z"/>
		<path class="st9" d="M1229.9,164.4c-0.7-5.4,1.5-11.3,5.6-16.3c9.7-11.9,25.9-8.3,34.3,3.6c7,9.9,9,20.7,5.2,32.4
			c-4.1,12.6-17.5,19.4-29.7,11.8C1234,188.9,1229.8,178.4,1229.9,164.4z"/>
		<path class="st5" d="M233.1,322.1c2.4,0.2,3,1.8,2.9,3.8c-0.1,1.7-0.7,3.1-2.6,2.9c-2-0.2-3.2-1.6-3.3-3.7
			C230,323.1,231.2,322.1,233.1,322.1z"/>
		<path class="st3" d="M735.9,412.1c2.2,1.1,3.5-1.5,5.5-2.4c3.2-1.5,7.4-1.8,10.5,0.2c3.2,2,4.4,6,3.8,9.7
			c-1.1,6.8-5.5,11.9-9.8,16.9c-0.7,0.8-1.5,1.2-2.7,0.7c-5.3-2.1-11.1-3.5-15.4-7.7c-3.5-3.5-4.8-7.5-2.9-12.1
			C727,413,730.7,411.6,735.9,412.1z"/>
		<path class="st6" d="M501.9,21.3c-0.3,1.8-1.2,3.4-3.1,3.2c-1.8-0.2-2.7-1.7-2.7-3.6c0-1.7,0.9-2.8,2.7-2.9
			C501,18,501.4,19.7,501.9,21.3z"/>
		<path class="st0" d="M1232.6,505.5c6.3,3.9,11.5,9,16.6,14.2c1.4,1.4,1.4,2.4-0.1,3.6c-6.5,5.2-14,6.3-22,5.6
			c-2.3-0.2-1.9-1.6-1.5-3.3C1227.2,518.8,1229.3,512.1,1232.6,505.5z"/>
		<path class="st0" d="M1213.6,522.6c-6.5-5.5-9.8-14.3-7.9-20.2c1.7-5.2,11.1-7.6,15.1-3.8c1.1,1,0.7,2,0.3,3.2
			C1218.7,508.6,1216.2,515.4,1213.6,522.6z"/>
		<path class="st0" d="M1259,503.8c-0.5,2.2,1.3,5.5-1,6.4c-2.2,0.9-3.5-2.5-5.2-3.9c-3.5-2.8-6.8-5.8-10.3-8.5
			c-4-3.1-4.1-4.3-0.2-7.5c6.5-5.5,13.3-3.4,15.7,4.7C1258.9,497.8,1259.3,500.8,1259,503.8z"/>
		<path class="st0" d="M532.1,390.2c1.4-5,0.9-10,0.9-14.9c0-3.9,2.2-5.6,5.5-5.6s5.5,1.6,5.6,5.6
			C544.1,380.9,538.6,388.1,532.1,390.2z"/>
		<path class="st6" d="M765,83.9c0.1,3.2-0.5,6-3.9,5.9c-3.2-0.1-5.6-2.6-5.9-5.7c-0.3-3.7,3-4.5,5.8-4.7
			C763.8,79.3,765.6,80.9,765,83.9z"/>
		<path class="st6" d="M734.7,73.5c-0.1-4,3.4-3.4,5.6-3.9c2.9-0.6,4.5,1.5,4.4,4c-0.1,2.8-1.1,6.1-4.7,6
			C736.7,79.5,734.8,77.1,734.7,73.5z"/>
		<path class="st6" d="M756,61.4c0,3.4-1.1,5.9-4.4,5.7c-3-0.1-5.6-2.1-5.5-5.4c0.2-3.4,3.1-4.6,6.1-4.7
			C755.1,57.1,756.4,59,756,61.4z"/>
		<path class="st6" d="M786,73c0.7,3.9,1.3,7.8-4,9c-3.2-1.2-6.7-2.9-5.3-6.7C778.3,71.2,782.2,71.2,786,73z"/>
		<path class="st0" d="M383,310c0,2.2,0.3,4.5-2.8,4.9c-2.8,0.4-4.7-0.2-5.6-3.4c-1.1-4.5-2.7-8.9-4-13.3c-0.5-1.6-2.4-3.7,1.1-4.6
			c2.7-0.7,5.2-2.5,7.2,1.2C380.3,297.3,383,306.6,383,310z"/>
		<path class="st4" d="M591,213c9.3,6.5,9.1,15.8,8.1,25.7c-1.7,17.1-10.2,29.3-25.1,37.3c-3.3,0.2-4.1-2.5-5.2-4.6
			c-8.4-16-5.3-40.1,6.8-53.4C580.3,212.8,585.8,211,591,213z"/>
		<path class="st3" d="M591,213c-8.9-0.3-14.4,4.5-18.5,11.9c-9,16.5-10.5,32.9-0.3,49.5c0.4,0.7,1.2,1.1,1.8,1.7
			c-0.6,1.1-1.5,2.2-1.9,3.5c-0.4,1.3-0.4,2.6-1.7,3.9c-6.9-6.9-10.6-15.4-12.3-24.6c-2.9-16,2-30.3,11.5-43.1
			c4.7-6.3,11.4-9.3,19-10.7c3-0.6,4.1,0.1,2.8,3.3C590.8,209.7,590,211.3,591,213z"/>
		<path class="st6" d="M753,103.8c0.1,3.8-1,6.2-4.7,6.1c-3.5-0.1-5-2.7-5-5.6c0-2.6,1.7-4.4,4.9-4.4
			C751.3,100,753.5,100.6,753,103.8z"/>
		<path class="st6" d="M781.4,94c2.2,0.7,5.1,1.3,4.4,4.7c-0.5,2.7-1,5.9-5.1,5.2c-3.2-0.5-5.1-2.2-4.6-5.8
			C776.4,95.1,778.3,93.9,781.4,94z"/>
		<path class="st9" d="M789.1,159c15.2-0.6,28,14.2,27.9,28.5c-0.1,16.6-12.1,29.1-28.9,29.2c-16.2,0.1-28.5-12.2-29-28.7
			C758.6,171.9,773,157.9,789.1,159z"/>
		<path class="st7" d="M58,42c1.5,0,2.4-0.9,3.4-1.9c4.5-4.8,10-6.4,16.3-4.3c6.2,2.1,9.2,7.4,10,13.2c1.2,8,1,16.3-3.7,23.5
			c-3.8,6-7,6.8-16,4.5c-1.3-0.7-1.8-1.9-2.2-3.1c-3-9.6-4.9-19.5-8-29C57.4,43.9,57.5,42.9,58,42z"/>
		<path class="st9" d="M58,42c4.5,11.3,6.5,23.4,10,35c-5.3,6.5-10,7.7-17.1,3.2c-8-5.1-13.1-12.7-14.7-22
			c-1.9-11.1,7.4-19.2,19-16.9C56.1,41.4,57,41.7,58,42z"/>
		<path class="st7" d="M788,206c-10.5,0.8-18.5-8.2-18.7-17.8c-0.1-8.7,6.3-19.4,19.1-19.2c10.4,0.2,19.5,8.8,18.3,19.2
			C805.7,197.6,800.6,206,788,206z"/>
		<path class="st5" d="M59.4,56.2c0.7,2.3,1.2,4.2,1.8,6.1c0.5,1.4,0.7,2.6-0.8,3.4c-1,0.5-2,1.5-3.2,0.7c-1.3-0.9-2.2-2.3-1.9-3.8
			C55.8,60.3,56.7,57.9,59.4,56.2z"/>
	</g>
</g>
</svg>
