<?xml version="1.0" encoding="utf-8"?>
<!-- Generator: Adobe Illustrator 19.2.0, SVG Export Plug-In . SVG Version: 6.00 Build 0)  -->
<svg version="1.1" id="Layer_1" xmlns="http://www.w3.org/2000/svg" xmlns:xlink="http://www.w3.org/1999/xlink" x="0px" y="0px"
	 viewBox="0 0 251 262" style="enable-background:new 0 0 251 262;" xml:space="preserve">
<style type="text/css">
	.st0{fill:#52504F;}
	.st1{fill:#F97221;}
</style>
<g id="layer1">
	<path class="st0" d="M101.1,211.5c-14.9-2.8-24.6-7.6-31.4-15.6c-6-7-6.8-9.5-6.5-21.6l0.3-10.8l60.3-0.3c66.5-0.2,64.5-0.4,67.8,6
		c2.2,4.2,1.3,10.1-2.7,17.9c-5.9,11.9-15.7,19-31.9,23.4C148.1,212.9,111.9,213.6,101.1,211.5z"/>
	<path class="st0" d="M33.4,185c-3.4-1.4-7.4-6.9-7.4-10.2c0-4.1,2.8-8.5,6.7-10.3c2.4-1.2,5.9-1.5,14-1.3l10.8,0.3v11v11l-11,0.2
		C40.5,185.8,34.6,185.5,33.4,185z"/>
</g>
<g id="layer2">
	<path class="st1" d="M67.2,145.2c-9.5-14.1-15-32.8-13.9-47.4C54.4,84.1,62.1,65,71.7,52c3.7-5,3.9-5.2,8.1-4.7
		c5.1,0.5,18.7,6.9,27.4,12.8c8.9,6.1,20.7,18.1,26.6,27.1l5,7.7l4.7-3c6.8-4.3,15.9-13.2,22.2-21.6c7.5-10.1,9.9-9.9,16.7,1.1
		c15.1,24.1,14.5,51.2-1.7,73.8l-5.2,7.3l-13.8,0.3c-11.5,0.2-13.7,0-13.7-1.2c0-0.8,0.5-1.8,1-2.1c2.3-1.4,7.7-13.9,9.5-21.9
		l0.6-2.9l-3.2,2.7c-5.9,5-20.3,11.5-28.7,13c-2.9,0.5-3.4,0.2-4.4-2.2c-4.5-11.2-8.2-17.4-13.4-22.2c-4.7-4.2-13.8-10-15.8-10
		c-1.4,0-2.9,9.5-2.9,17.5c0,7.3,0.5,10.3,2.6,15.8c1.5,3.8,3.6,8.1,4.7,9.7c1.1,1.5,2,3.1,2,3.4c0,0.3-6.2,0.6-13.8,0.6H72.5
		L67.2,145.2z"/>
</g>
</svg>
