<svg xmlns="http://www.w3.org/2000/svg" width="48" height="48"><path fill="#FDD760" d="M36.5 21a9.5 9.5 0 0 1 0-19 9.5 9.5 0 0 1 0 19zm-25 24a9.5 9.5 0 0 1 0-19 9.5 9.5 0 0 1 0 19z"></path><path fill="#E5A03E" d="M36.5 45a9.5 9.5 0 0 1 0-19 9.5 9.5 0 0 1 0 19zm4.138-14.062l-6.203 6.347-1.682-1.904c-.736-.633-1.893.107-1.367 1.06l1.997 3.385c.316.423 1.052.846 1.788 0 .317-.423 6.31-7.934 6.31-7.934.735-.845-.21-1.586-.84-.95zM35.17 15.824c-.735.846-1.47.423-1.787 0l-1.997-3.385c-.526-.955.63-1.695 1.367-1.06l1.682 1.904 6.203-6.347c.63-.635 1.577.106.84.952 0 0-5.992 7.51-6.307 7.932zM11.5 21a9.5 9.5 0 0 1 0-19 9.5 9.5 0 0 1 0 19zm4.137-14.062l-6.202 6.347-1.682-1.904c-.736-.633-1.893.107-1.367 1.06l1.997 3.384c.316.424 1.052.847 1.788 0 .317-.423 6.31-7.933 6.31-7.933.736-.845-.21-1.586-.842-.95zM7.753 35.38l1.682 1.905 6.202-6.347c.63-.634 1.578.106.84.952.002 0-5.99 7.51-6.306 7.934-.734.846-1.47.423-1.786 0L6.386 36.44c-.526-.953.63-1.694 1.367-1.06z"></path></svg>
