<svg xmlns="http://www.w3.org/2000/svg" width="66" height="66" viewBox="0 0 66 66"><circle cx="33" cy="33" r="33" fill="#b9f4bc"/><path d="M47.648 17.64c-9.586 13.665-17.565 21.392-28.572 26.42-.7-2.896-3.055-14.548 2.83-20.566 6.116-6.258 15.14-3.742 23.81-6.447a1.76 1.76 0 0 1 1.932.593z" fill="#1bb978" opacity=".5"/><path d="M14.02 46.165a21.107 21.107 0 0 0 4.253-2.264 7.538 7.538 0 0 0 .7-.4c10.233-6.64 18.127-13.445 28.4-26.15a1.608 1.608 0 0 1 .618 1.33c-.253 7.5-1.264 17.514-6.947 23.327-5.163 5.28-15.166 4.075-19.59 3.215a24.45 24.45 0 0 1-6.5 3.71 1.46 1.46 0 1 1-.933-2.767z" fill="#1bb978"/></svg>