<svg xmlns="http://www.w3.org/2000/svg" width="48" height="48"><path fill="#FDD760" d="M42.402 37.792L25.15 45.77a2.75 2.75 0 0 1-2.3-.002L5.598 37.793a2.748 2.748 0 0 1-1.594-2.495V14.162c0-.565.177-1.1.482-1.548L24 21.63l19.514-9.014c.306.447.482.982.482 1.547v21.135a2.748 2.748 0 0 1-1.594 2.495z"></path><path fill="#E5A03E" d="M42.402 37.792L25.15 45.77a2.743 2.743 0 0 1-1.15.252v-24.39l19.514-9.018c.306.448.482.983.482 1.548v21.135a2.748 2.748 0 0 1-1.594 2.495z"></path><path fill="#FDD760" d="M24 16c-4.97 0-9-2.015-9-4.5v-3h.23c.913 2.003 4.49 3.5 8.77 3.5 4.282 0 7.858-1.497 8.77-3.5H33v3c0 2.485-4.03 4.5-9 4.5z"></path></svg>
