<svg xmlns="http://www.w3.org/2000/svg" width="66" height="66" viewBox="0 0 66 66"><circle cx="33" cy="33" r="33" fill="#b9f4bc"/><path d="M18.018 41.69l6.51-3.662 5.966 3.355a5.645 5.645 0 0 0 4.99 0l5.965-3.355 6.51 3.662c1.378.775 1.378 2.032 0 2.807l-12.476 7.017a5.645 5.645 0 0 1-4.99 0L18.018 44.5c-1.378-.778-1.378-2.035 0-2.81z" fill="#1bb978" opacity=".33"/><path d="M35.484 24.573L47.96 31.59c1.378.775 1.378 2.032 0 2.807l-12.476 7.017a5.645 5.645 0 0 1-4.99 0L18.018 34.4c-1.378-.775-1.378-2.032 0-2.807l12.476-7.017a5.645 5.645 0 0 1 4.99-.003z" fill="#1bb978" opacity=".66"/><path d="M35.484 14.473L47.96 21.49c1.378.775 1.378 2.032 0 2.807l-12.476 7.017a5.644 5.644 0 0 1-4.99 0L18.018 24.3c-1.378-.775-1.378-2.032 0-2.807l12.476-7.017a5.645 5.645 0 0 1 4.99-.003z" fill="#1bb978"/></svg>