<svg xmlns="http://www.w3.org/2000/svg" width="48" height="48"><path fill="#FDD760" d="M31.81 31H11a1 1 0 0 0-1 1v3a1 1 0 0 0 1 1h25a1 1 0 0 0 1-1v-1.806l5-2.446V39a3 3 0 0 1-3 3H8a3 3 0 0 1-3-3V8a3 3 0 0 1 3-3h31a3 3 0 0 1 3 3v14.767L31.81 31zM10 25a1 1 0 0 0 1 1h10a1 1 0 0 0 1-1v-3a1 1 0 0 0-1-1H11a1 1 0 0 0-1 1v3zm27-13a1 1 0 0 0-1-1H11a1 1 0 0 0-1 1v3a1 1 0 0 0 1 1h25a1 1 0 0 0 1-1v-3zm0 10a1 1 0 0 0-1-1H26a1 1 0 0 0-1 1v3a1 1 0 0 0 1 1h10a1 1 0 0 0 1-1v-3z"></path><path fill="#FDD760" d="M34.956 32.365L46.1 21.205a3.06 3.06 0 0 0 0-4.318 3.043 3.043 0 0 0-4.31 0l-11.143 11.16a2.445 2.445 0 0 0-.64 1.133l-.98 3.925a.728.728 0 0 0 .88.884l3.918-.984a2.4 2.4 0 0 0 1.13-.642z"></path></svg>
