<svg xmlns="http://www.w3.org/2000/svg" width="48" height="48"><path fill="#FDD760" d="M37 44H11a3 3 0 0 1-3-3V8a3 3 0 0 1 3-3h26a3 3 0 0 1 3 3v33a3 3 0 0 1-3 3zm-18.5-3h13a1.5 1.5 0 0 0 0-3h-13a1.5 1.5 0 0 0 0 3zM25 21.5a1.5 1.5 0 0 0-1.5-1.5h-6a1.5 1.5 0 0 0 0 3h6a1.5 1.5 0 0 0 1.5-1.5zM12.5 29h9a1.5 1.5 0 0 0 0-3h-9a1.5 1.5 0 0 0 0 3zm11-21h-11a1.5 1.5 0 0 0 0 3h11a1.5 1.5 0 0 0 0-3zm12 6h-13a1.5 1.5 0 0 0 0 3h13a1.5 1.5 0 0 0 0-3zm0 12h-8a1.5 1.5 0 0 0 0 3h8a1.5 1.5 0 0 0 0-3z"></path><path fill="#FDD760" d="M47.66 34.366l-4.154 4.284a1.15 1.15 0 0 1-1.662 0 1.24 1.24 0 0 1 0-1.713L43.722 35H23.5a1.5 1.5 0 0 1 0-3h20.204l-1.86-1.918a1.24 1.24 0 0 1 0-1.713 1.15 1.15 0 0 1 1.662-.003l4.155 4.285c.46.473.46 1.24 0 1.713zM16.5 17H4.296l1.86 1.918a1.24 1.24 0 0 1 0 1.713 1.15 1.15 0 0 1-1.662 0L.34 16.35a1.24 1.24 0 0 1 0-1.714l4.154-4.284a1.15 1.15 0 0 1 1.662 0 1.24 1.24 0 0 1 0 1.713L4.278 14H16.5a1.5 1.5 0 0 1 0 3z"></path></svg>
